<?xml version="1.0" standalone="no"?>
<!DOCTYPE svg PUBLIC "-//W3C//DTD SVG 20010904//EN"
 "http://www.w3.org/TR/2001/REC-SVG-20010904/DTD/svg10.dtd">
<svg version="1.0" xmlns="http://www.w3.org/2000/svg"
 width="512.000000pt" height="512.000000pt" viewBox="0 0 512.000000 512.000000"
 preserveAspectRatio="xMidYMid meet">
<metadata>
Created by potrace 1.16, written by Peter Selinger 2001-2019
</metadata>
<g transform="translate(0.000000,512.000000) scale(0.100000,-0.100000)"
fill="#000000" stroke="none">
<path d="M778 4948 c-21 -12 -38 -25 -38 -30 0 -9 73 -48 90 -48 5 0 10 22 10
50 0 57 -7 60 -62 28z m49 -64 c-5 -6 -67 29 -67 37 0 3 15 12 33 21 l32 15 3
-34 c2 -19 1 -37 -1 -39z"/>
<path d="M2898 4913 c111 -2 293 -2 405 0 111 1 20 2 -203 2 -223 0 -314 -1
-202 -2z"/>
<path d="M2674 4640 c0 -140 2 -198 3 -127 2 70 2 184 0 255 -1 70 -3 12 -3
-128z"/>
<path d="M3524 4640 c0 -140 2 -198 3 -127 2 70 2 184 0 255 -1 70 -3 12 -3
-128z"/>
<path d="M3010 4760 l0 -60 41 0 c26 0 38 4 33 11 -3 6 -17 9 -30 6 -18 -3
-24 0 -24 14 0 14 7 19 25 19 14 0 25 5 25 10 0 6 -11 10 -25 10 -18 0 -25 5
-25 19 0 14 6 17 24 14 13 -3 27 0 30 6 5 7 -7 11 -33 11 l-41 0 0 -60z"/>
<path d="M3107 4814 c-18 -18 -5 -46 28 -60 19 -8 35 -18 35 -23 0 -15 -32
-22 -47 -10 -16 14 -31 3 -16 -12 6 -6 23 -9 39 -7 23 2 30 9 32 31 3 23 -1
28 -27 33 -17 4 -31 12 -31 20 0 23 21 27 42 7 20 -18 20 -18 17 2 -3 14 -13
21 -34 23 -17 2 -34 0 -38 -4z"/>
<path d="M4895 4760 c0 -33 3 -60 8 -60 4 0 7 9 7 20 0 15 7 20 25 20 31 0 50
32 35 60 -7 14 -21 20 -43 20 l-32 0 0 -60z m60 20 c0 -8 -10 -16 -22 -18 -18
-3 -23 2 -23 18 0 16 5 21 23 18 12 -2 22 -10 22 -18z"/>
<path d="M4997 4783 c-14 -13 -6 -20 18 -15 15 2 25 0 25 -7 0 -6 -11 -11 -24
-11 -25 0 -39 -19 -27 -38 3 -6 21 -10 39 -10 27 1 32 5 32 25 0 48 -38 81
-63 56z m43 -52 c0 -12 -28 -22 -34 -12 -3 5 -3 11 1 15 9 9 33 7 33 -3z"/>
<path d="M5082 4778 c-25 -25 -8 -78 25 -78 7 0 13 5 13 10 0 6 -6 9 -12 8 -8
-2 -14 9 -16 25 -2 19 1 27 12 27 9 0 16 5 16 10 0 14 -23 13 -38 -2z"/>
<path d="M2358 4718 c-57 -20 -43 -80 22 -98 22 -6 40 -15 40 -21 0 -16 -31
-23 -51 -11 -22 14 -49 16 -49 3 0 -21 34 -41 69 -41 80 0 97 79 21 100 -21 6
-42 15 -45 20 -10 17 25 24 50 10 34 -18 51 -9 28 17 -23 27 -51 34 -85 21z
m73 -25 c13 -16 12 -17 -3 -5 -25 20 -73 12 -73 -13 0 -15 11 -24 42 -33 43
-14 57 -31 47 -57 -12 -29 -104 -32 -104 -3 0 9 3 9 12 0 17 -17 67 -15 75 4
7 20 -8 35 -49 48 -36 12 -51 52 -26 67 22 15 65 10 79 -8z"/>
<path d="M1750 4635 c0 -78 2 -85 20 -85 16 0 20 7 20 30 0 17 5 30 13 30 6 0
18 -13 25 -30 10 -22 21 -30 38 -30 24 0 24 0 9 31 -9 17 -19 29 -22 26 -2 -3
0 -15 7 -26 7 -13 7 -21 1 -21 -6 0 -17 14 -26 30 -9 18 -23 30 -35 30 -16 0
-20 -7 -20 -30 0 -16 -4 -30 -10 -30 -6 0 -10 32 -10 75 l0 75 43 0 c48 0 67
-13 67 -47 0 -32 -18 -29 -22 5 -2 22 -8 28 -35 30 -32 3 -33 2 -33 -34 0 -36
0 -37 35 -31 22 4 35 2 35 -5 0 -6 6 -6 15 2 18 15 20 61 3 78 -7 7 -36 12
-65 12 l-53 0 0 -85z m87 39 c6 -16 -12 -34 -34 -34 -7 0 -13 11 -13 25 0 18
5 25 20 25 11 0 23 -7 27 -16z"/>
<path d="M2260 4666 c0 -30 -3 -61 -6 -70 -6 -17 -34 -22 -34 -7 0 5 -9 11
-20 14 -14 4 -20 0 -20 -12 0 -26 21 -41 56 -41 47 0 64 29 64 107 0 56 -2 63
-20 63 -18 0 -20 -7 -20 -54z m9 -92 c-15 -18 -53 -18 -69 1 -15 18 -7 19 19
3 33 -20 51 5 53 76 l2 61 3 -63 c3 -39 -1 -69 -8 -78z"/>
<path d="M3750 4684 c-8 -8 -13 -28 -13 -44 0 -16 5 -36 13 -44 15 -19 51 -21
68 -4 20 20 14 33 -7 14 -32 -29 -71 7 -56 53 8 27 31 33 50 14 20 -19 33 -9
15 12 -16 19 -54 19 -70 -1z"/>
<path d="M4438 4658 c3 -54 -10 -77 -32 -59 -14 11 -16 11 -16 -3 0 -13 7 -17
28 -14 25 3 27 7 32 61 3 35 1 57 -5 57 -6 0 -9 -18 -7 -42z"/>
<path d="M4482 4688 c-21 -21 -13 -38 23 -54 19 -8 35 -19 35 -24 0 -17 -29
-23 -45 -10 -17 14 -31 8 -20 -9 9 -15 58 -14 73 1 21 21 13 39 -23 54 -36 15
-44 28 -24 39 5 4 19 -1 31 -12 20 -18 20 -18 17 2 -5 24 -48 32 -67 13z"/>
<path d="M1900 4634 c0 -70 11 -83 70 -82 l50 0 0 64 c0 57 -2 64 -20 64 -17
0 -20 -7 -20 -51 0 -43 -3 -50 -17 -47 -14 2 -19 15 -21 51 -3 39 -6 47 -23
47 -16 0 -19 -7 -19 -46z m30 -9 c0 -38 4 -47 23 -55 l22 -9 -22 0 c-12 -1
-27 8 -33 18 -13 25 -13 91 0 91 6 0 10 -20 10 -45z m80 -10 c0 -44 -3 -55
-16 -55 -12 0 -14 5 -8 18 4 9 9 34 12 55 6 54 12 45 12 -18z"/>
<path d="M2040 4615 c0 -62 1 -65 24 -65 19 0 22 4 18 25 -6 34 6 75 22 75 17
0 26 -22 26 -66 0 -27 4 -34 20 -34 17 0 20 7 20 46 0 61 -14 84 -50 84 -15 0
-31 -6 -33 -12 -4 -10 -6 -10 -6 0 -1 6 -10 12 -21 12 -18 0 -20 -7 -20 -65z
m30 -10 l-7 -50 -2 60 c0 34 3 55 8 50 4 -6 5 -32 1 -60z m76 5 c1 -42 0 -45
-3 -13 -3 29 -11 48 -26 59 l-22 15 25 -3 c23 -3 25 -7 26 -58z"/>
<path d="M3848 4644 c-16 -34 0 -59 38 -59 24 0 30 5 32 28 7 55 -48 79 -70
31z m55 -8 c7 -19 -17 -51 -31 -42 -20 12 -15 56 7 56 10 0 21 -6 24 -14z"/>
<path d="M3940 4623 c0 -24 5 -43 10 -43 6 0 10 16 10 35 0 24 5 35 15 35 10
0 15 -11 15 -35 0 -19 5 -35 10 -35 6 0 10 16 10 35 0 24 5 35 15 35 10 0 15
-11 15 -35 0 -19 5 -35 10 -35 12 0 13 59 2 76 -4 7 -30 11 -59 11 l-53 -1 0
-43z"/>
<path d="M4070 4624 c0 -24 5 -44 10 -44 6 0 10 16 10 35 0 24 5 35 15 35 10
0 15 -11 15 -35 0 -19 5 -35 10 -35 6 0 10 16 10 35 0 24 5 35 15 35 10 0 15
-11 15 -35 0 -19 5 -35 11 -35 6 0 9 17 7 43 l-3 42 -57 1 -58 1 0 -43z"/>
<path d="M4221 4656 c-7 -8 -11 -27 -9 -43 2 -22 9 -29 30 -31 21 -3 30 2 39
21 21 47 -29 91 -60 53z m49 -30 c0 -32 -20 -44 -36 -22 -16 23 -7 46 17 46
13 0 19 -7 19 -24z"/>
<path d="M4300 4624 c0 -24 5 -44 10 -44 6 0 10 16 10 36 0 28 3 35 18 32 12
-2 17 -13 17 -36 0 -17 3 -32 8 -32 4 0 7 19 5 43 -3 40 -5 42 -35 44 -33 1
-33 1 -33 -43z"/>
<path d="M3080 4567 c0 -18 -5 -23 -21 -23 -28 1 -44 -24 -35 -57 5 -23 12
-27 41 -27 l35 0 0 65 c0 37 -4 65 -10 65 -5 0 -10 -10 -10 -23z m-2 -64 c-2
-17 -9 -28 -18 -28 -9 0 -16 11 -18 28 -3 22 1 27 18 27 17 0 21 -5 18 -27z"/>
<path d="M3210 4526 c0 -37 4 -66 10 -66 6 0 10 26 10 59 0 33 -4 63 -10 66
-6 4 -10 -18 -10 -59z"/>
<path d="M2800 4520 c0 -33 3 -60 8 -60 4 0 6 24 5 52 l-3 53 17 -52 c8 -29
21 -53 28 -53 7 0 20 24 28 53 l17 52 -3 -53 c-1 -28 1 -52 6 -52 4 0 7 27 7
60 0 33 -4 60 -9 60 -5 0 -18 -22 -28 -50 l-19 -49 -17 49 c-10 28 -22 50 -27
50 -6 0 -10 -27 -10 -60z"/>
<path d="M2941 4536 c-7 -8 -11 -27 -9 -43 2 -22 9 -29 30 -31 21 -3 30 2 39
21 21 47 -29 91 -60 53z m49 -30 c0 -32 -20 -44 -36 -22 -16 23 -7 46 17 46
13 0 19 -7 19 -24z"/>
<path d="M3122 4508 c3 -40 5 -43 36 -46 32 -3 32 -3 32 42 0 25 -4 46 -10 46
-5 0 -10 -15 -10 -34 0 -19 -4 -37 -9 -40 -15 -10 -34 23 -29 49 3 14 1 25 -4
25 -5 0 -8 -19 -6 -42z"/>
<path d="M3248 4524 c-8 -18 -9 -30 -1 -42 12 -20 51 -28 66 -13 16 16 0 26
-17 12 -8 -7 -20 -10 -26 -6 -20 12 -10 25 20 25 31 0 39 17 18 38 -20 20 -48
14 -60 -14z m52 -4 c0 -5 -9 -10 -20 -10 -11 0 -20 5 -20 10 0 6 9 10 20 10
11 0 20 -4 20 -10z"/>
<path d="M3337 4543 c-14 -14 -6 -34 18 -43 26 -10 34 -30 12 -30 -7 0 -19 6
-26 13 -11 10 -13 9 -9 -3 3 -9 17 -15 34 -15 39 0 46 31 9 45 -14 5 -23 15
-20 20 5 8 11 7 21 -1 16 -13 30 -6 19 10 -7 12 -48 15 -58 4z"/>
<path d="M270 4484 c0 -17 22 -14 28 4 2 7 -3 12 -12 12 -9 0 -16 -7 -16 -16z"/>
<path d="M310 4430 c0 -56 3 -70 15 -70 12 0 15 14 15 70 0 56 -3 70 -15 70
-12 0 -15 -14 -15 -70z"/>
<path d="M170 4425 c0 -51 3 -65 15 -65 9 0 15 9 15 25 0 20 5 25 25 25 14 0
25 5 25 10 0 6 -11 10 -25 10 -18 0 -25 5 -25 20 0 16 7 20 30 20 17 0 30 5
30 10 0 6 -20 10 -45 10 l-45 0 0 -65z m17 -27 c-2 -18 -4 -6 -4 27 0 33 2 48
4 33 2 -15 2 -42 0 -60z"/>
<path d="M270 4410 c0 -38 4 -50 15 -50 11 0 15 12 15 50 0 38 -4 50 -15 50
-11 0 -15 -12 -15 -50z"/>
<path d="M372 4448 c-7 -7 -12 -24 -12 -38 0 -14 5 -31 12 -38 17 -17 53 -15
69 5 13 15 11 16 -13 10 -14 -4 -34 -4 -42 -1 -21 8 -21 40 0 48 23 9 34 7 34
-4 0 -5 -9 -10 -20 -10 -11 0 -20 -4 -20 -10 0 -5 16 -10 35 -10 27 0 35 4 35
18 0 24 -19 42 -45 42 -12 0 -26 -5 -33 -12z"/>
<path d="M464 4445 c-13 -32 14 -53 59 -46 4 0 7 -4 7 -10 0 -8 -12 -10 -36
-6 -25 4 -34 2 -31 -6 2 -7 19 -12 38 -12 27 0 35 4 37 22 3 17 -3 24 -22 29
-14 3 -26 10 -26 15 0 5 11 7 25 3 27 -7 35 10 9 20 -27 11 -54 7 -60 -9z"/>
<path d="M2898 4363 c111 -2 293 -2 405 0 111 1 20 2 -203 2 -223 0 -314 -1
-202 -2z"/>
<path d="M488 4113 c166 -2 438 -2 605 0 166 1 30 2 -303 2 -333 0 -469 -1
-302 -2z"/>
<path d="M2108 4112 c-10 -2 -18 -8 -18 -14 0 -5 6 -8 13 -5 16 6 10 -64 -7
-75 -6 -4 4 -8 22 -8 17 0 32 5 32 11 0 5 -4 8 -9 4 -6 -3 -11 15 -13 42 -2
40 -6 48 -20 45z"/>
<path d="M2457 4064 c-15 -31 -26 -59 -23 -61 7 -7 58 96 54 108 -2 6 -16 -16
-31 -47z"/>
<path d="M2901 4103 c-1 -14 -6 -21 -14 -17 -21 8 -40 -22 -33 -51 5 -19 13
-25 34 -25 26 0 27 2 24 43 -4 54 -9 78 -11 50z m-6 -53 c0 -13 -5 -25 -11
-27 -14 -5 -25 22 -17 42 8 23 28 12 28 -15z"/>
<path d="M3890 4110 c0 -5 5 -10 10 -10 6 0 10 5 10 10 0 6 -4 10 -10 10 -5 0
-10 -4 -10 -10z"/>
<path d="M2537 4055 c-15 -30 -23 -55 -19 -55 4 0 20 25 35 55 15 30 23 55 19
55 -4 0 -20 -25 -35 -55z"/>
<path d="M2677 4099 c6 -6 7 -25 3 -50 -4 -21 -3 -39 1 -39 5 0 10 17 10 38 1
20 3 29 6 20 2 -10 9 -18 15 -18 5 0 7 6 4 13 -3 6 -9 20 -12 30 -4 9 -13 17
-22 17 -11 0 -13 -3 -5 -11z"/>
<path d="M2727 4103 c-4 -3 -7 -11 -7 -17 0 -6 5 -4 11 4 8 11 9 2 4 -32 -4
-31 -2 -48 4 -48 6 0 11 21 11 50 0 46 -7 60 -23 43z"/>
<path d="M3300 4104 c12 -4 14 -15 12 -45 -4 -34 -7 -40 -23 -36 -11 3 -19 1
-19 -4 0 -16 48 -10 54 7 3 9 6 31 6 50 0 29 -3 34 -22 33 -13 -1 -17 -3 -8
-5z"/>
<path d="M3617 4103 c-14 -14 -6 -34 18 -43 14 -5 25 -17 25 -26 0 -12 -7 -15
-25 -12 -14 3 -25 1 -25 -4 0 -5 12 -8 28 -6 39 4 44 44 6 58 -29 11 -24 24
11 33 16 4 15 5 -6 6 -14 0 -29 -2 -32 -6z"/>
<path d="M4042 4095 c-7 -8 -8 -15 -3 -15 5 0 11 -15 13 -32 2 -27 8 -33 28
-35 25 -3 25 -3 3 7 -28 12 -32 56 -5 63 16 4 16 5 -1 6 -10 0 -15 6 -12 11 9
15 -8 11 -23 -5z"/>
<path d="M4710 4060 l0 -50 33 1 c30 2 30 2 5 6 -19 3 -28 10 -28 23 0 13 9
20 28 23 l27 4 -27 2 c-17 0 -28 7 -28 15 0 8 12 17 28 19 25 4 25 4 -5 6
l-33 1 0 -50z"/>
<path d="M4797 4103 c-14 -14 -6 -34 18 -43 14 -5 25 -17 25 -26 0 -12 -7 -15
-25 -12 -14 3 -25 1 -25 -4 0 -5 12 -8 28 -6 39 4 44 44 6 58 -29 11 -24 24
11 33 16 4 15 5 -6 6 -14 0 -29 -2 -32 -6z"/>
<path d="M4952 4058 l1 -53 4 45 c4 44 5 45 19 20 l14 -25 7 25 c7 22 9 20 14
-20 l6 -45 1 53 c2 53 -11 70 -24 30 l-7 -23 -10 23 c-17 37 -27 25 -25 -30z"/>
<path d="M164 3880 c0 -118 2 -167 3 -107 2 59 2 155 0 215 -1 59 -3 10 -3
-108z"/>
<path d="M1414 3880 c0 -118 2 -167 3 -107 2 59 2 155 0 215 -1 59 -3 10 -3
-108z"/>
<path d="M2774 4076 c-3 -8 -4 -25 -2 -38 2 -17 9 -23 28 -23 22 0 25 4 25 35
0 29 -4 36 -23 38 -13 2 -24 -3 -28 -12z m41 -26 c0 -27 -22 -39 -31 -16 -8
22 3 49 19 43 6 -2 12 -14 12 -27z"/>
<path d="M2940 4071 c-15 -29 3 -61 35 -61 14 0 25 4 25 8 0 5 -10 8 -21 8
-12 -1 -24 5 -26 12 -3 7 5 12 22 12 20 0 26 4 23 18 -5 25 -44 27 -58 3z m45
-1 c3 -5 -3 -10 -15 -10 -12 0 -18 5 -15 10 3 6 10 10 15 10 5 0 12 -4 15 -10z"/>
<path d="M3035 4049 c0 -22 3 -39 8 -39 4 0 7 14 7 30 0 27 8 35 33 31 4 0 7
3 7 8 0 5 -13 9 -28 9 -26 -1 -28 -4 -27 -39z"/>
<path d="M3111 4045 l2 -40 6 34 c8 48 31 53 31 7 0 -20 5 -36 10 -36 12 0 13
49 2 67 -4 7 -18 11 -30 10 -19 -1 -22 -7 -21 -42z"/>
<path d="M3360 4081 c0 -6 7 -8 15 -5 8 3 20 2 27 -2 9 -6 5 -10 -12 -14 -16
-4 -26 -14 -28 -28 -3 -20 1 -22 28 -20 29 2 31 5 28 38 -3 30 -7 35 -30 38
-16 2 -28 -1 -28 -7z m50 -41 c0 -12 -28 -25 -36 -17 -9 9 6 27 22 27 8 0 14
-5 14 -10z"/>
<path d="M3444 4074 c3 -9 9 -27 12 -40 9 -35 29 -29 42 13 15 47 7 56 -11 12
l-13 -34 -12 33 c-6 17 -14 32 -18 32 -3 0 -3 -7 0 -16z"/>
<path d="M3530 4081 c0 -5 8 -7 19 -4 10 3 22 0 25 -6 4 -6 -1 -11 -11 -11
-11 0 -24 -5 -30 -11 -18 -18 -3 -39 28 -39 24 0 29 4 29 24 0 40 -11 56 -36
56 -13 0 -24 -4 -24 -9z m44 -46 c-4 -8 -12 -15 -20 -15 -8 0 -14 7 -14 15 0
8 9 15 20 15 13 0 18 -5 14 -15z"/>
<path d="M3710 4076 c-20 -26 -8 -61 23 -64 15 -2 27 1 27 6 0 6 -9 8 -20 5
-13 -3 -22 1 -26 11 -8 20 15 49 33 42 7 -3 13 -1 13 4 0 15 -36 12 -50 -4z"/>
<path d="M3790 4048 c0 -21 4 -38 10 -38 5 0 7 6 4 14 -8 21 15 59 32 52 8 -3
14 -1 14 4 0 5 -13 8 -30 7 -28 -2 -30 -5 -30 -39z"/>
<path d="M3878 4083 c6 -2 12 -16 12 -29 0 -13 5 -24 10 -24 6 0 10 14 10 30
0 25 -4 30 -22 29 -13 0 -17 -3 -10 -6z"/>
<path d="M3951 4031 c1 -32 4 -48 7 -36 4 11 16 20 27 20 16 0 20 7 20 35 0
31 -3 35 -27 36 -27 1 -28 0 -27 -55z m44 19 c0 -27 -22 -39 -31 -16 -8 22 3
49 19 43 6 -2 12 -14 12 -27z"/>
<path d="M4200 4063 c0 -38 11 -52 38 -50 19 1 22 7 21 42 l-2 40 -6 -34 c-8
-48 -31 -53 -31 -7 0 20 -4 36 -10 36 -5 0 -10 -12 -10 -27z"/>
<path d="M4297 4083 c-13 -13 -7 -32 13 -38 11 -3 20 -11 20 -17 0 -6 -9 -8
-20 -5 -11 3 -20 1 -20 -4 0 -5 11 -9 25 -9 31 0 35 35 5 45 -11 4 -18 11 -14
16 3 6 12 8 20 5 8 -3 14 -1 14 4 0 11 -33 14 -43 3z"/>
<path d="M4388 4083 c19 -8 15 -61 -5 -66 -10 -3 0 -5 22 -5 22 0 32 2 23 5
-13 3 -18 15 -18 39 0 26 -4 34 -17 33 -11 0 -13 -3 -5 -6z"/>
<path d="M4458 4049 c-2 -22 0 -39 4 -39 4 0 8 14 10 32 4 46 28 49 28 4 0
-20 4 -36 8 -36 5 0 6 17 3 38 -5 29 -11 37 -28 38 -18 1 -22 -5 -25 -37z"/>
<path d="M4544 4076 c-12 -31 0 -61 24 -60 12 0 21 -4 19 -10 -2 -6 -14 -11
-26 -10 -11 0 -21 -3 -21 -8 0 -15 48 -8 54 8 3 9 6 32 6 53 0 32 -3 37 -25
39 -15 1 -28 -4 -31 -12z m40 -11 c7 -18 -2 -45 -15 -45 -5 0 -12 7 -15 15 -7
18 2 45 15 45 5 0 11 -7 15 -15z"/>
<path d="M5050 4075 c-20 -24 -4 -65 25 -65 18 0 26 7 31 25 7 27 -9 55 -31
55 -7 0 -18 -7 -25 -15z m40 -31 c0 -15 -6 -24 -15 -24 -15 0 -21 40 -9 53 12
11 24 -3 24 -29z"/>
<path d="M3883 4013 c9 -2 25 -2 35 0 9 3 1 5 -18 5 -19 0 -27 -2 -17 -5z"/>
<path d="M510 3934 c0 -8 5 -12 10 -9 6 4 8 11 5 16 -9 14 -15 11 -15 -7z"/>
<path d="M600 3885 c0 -37 4 -65 10 -65 6 0 10 28 10 65 0 37 -4 65 -10 65 -6
0 -10 -28 -10 -65z"/>
<path d="M786 3941 c-4 -5 -4 -15 -1 -23 4 -10 -3 -14 -22 -13 -21 0 -30 -6
-37 -27 -12 -35 6 -58 45 -58 29 0 29 0 29 65 0 63 -3 75 -14 56z m-8 -78 c-2
-17 -9 -28 -18 -28 -9 0 -16 11 -18 28 -3 22 1 27 18 27 17 0 21 -5 18 -27z"/>
<path d="M250 3891 c0 -56 15 -74 57 -69 27 3 28 6 31 61 2 31 -1 57 -5 57 -5
0 -7 -17 -5 -37 4 -45 -16 -77 -41 -67 -13 5 -17 18 -17 55 0 27 -4 49 -10 49
-5 0 -10 -22 -10 -49z"/>
<path d="M460 3926 c0 -9 -5 -16 -12 -16 -9 0 -9 -3 0 -12 7 -7 12 -27 12 -45
0 -28 4 -33 23 -33 13 0 17 3 11 8 -19 11 -21 56 -4 69 13 11 13 12 -3 13 -10
0 -16 4 -12 9 3 5 1 12 -5 16 -5 3 -10 -1 -10 -9z"/>
<path d="M547 3922 c-2 -11 -1 -36 2 -58 5 -28 12 -40 26 -42 16 -3 18 -1 8 9
-15 15 -18 73 -3 64 6 -3 10 -1 10 4 0 6 -4 11 -10 11 -5 0 -10 7 -10 15 0 21
-17 19 -23 -3z"/>
<path d="M360 3863 c0 -23 5 -43 10 -43 6 0 10 16 10 35 0 28 4 35 20 35 16 0
20 -7 20 -35 0 -19 5 -35 10 -35 11 0 13 33 4 67 -5 18 -13 22 -40 21 -33 -1
-34 -2 -34 -45z"/>
<path d="M510 3865 c0 -25 5 -45 10 -45 6 0 10 20 10 45 0 25 -4 45 -10 45 -5
0 -10 -20 -10 -45z"/>
<path d="M641 3888 c-13 -36 2 -63 34 -63 16 0 30 6 33 13 3 11 0 12 -14 4
-21 -10 -44 -6 -44 9 0 5 14 9 30 9 31 0 39 17 18 38 -19 19 -48 14 -57 -10z
m49 -8 c0 -5 -9 -10 -21 -10 -11 0 -17 5 -14 10 3 6 13 10 21 10 8 0 14 -4 14
-10z"/>
<path d="M2460 3900 c0 -5 5 -10 10 -10 6 0 10 5 10 10 0 6 -4 10 -10 10 -5 0
-10 -4 -10 -10z"/>
<path d="M3220 3895 c0 -8 -8 -15 -17 -16 -11 0 -13 -3 -5 -6 6 -2 12 -20 12
-39 0 -19 5 -34 10 -34 6 0 10 15 10 34 0 24 5 36 18 39 16 4 16 5 0 6 -10 0
-18 6 -18 12 0 5 4 8 9 4 5 -3 12 -1 16 5 3 5 -3 10 -14 10 -12 0 -21 -7 -21
-15z"/>
<path d="M3630 3891 c0 -11 5 -23 10 -26 6 -4 10 5 10 19 0 14 -4 26 -10 26
-5 0 -10 -9 -10 -19z"/>
<path d="M3707 3902 c6 -4 13 -27 15 -52 2 -35 7 -46 22 -48 19 -4 19 -3 2 14
-13 12 -17 29 -14 56 3 33 1 38 -17 38 -13 0 -16 -3 -8 -8z"/>
<path d="M3910 3891 c0 -14 -5 -18 -20 -14 -14 4 -21 -1 -26 -21 -9 -38 1 -56
33 -56 27 0 28 2 28 55 0 30 -3 55 -7 55 -5 0 -8 -9 -8 -19z m-2 -57 c-5 -28
-28 -29 -28 -1 0 13 3 27 7 31 10 10 25 -10 21 -30z"/>
<path d="M4123 3855 c0 -45 1 -52 6 -26 8 48 31 53 31 7 0 -20 5 -36 10 -36
12 0 13 50 1 69 -5 8 -16 11 -24 8 -11 -4 -17 1 -20 16 -2 12 -4 -5 -4 -38z"/>
<path d="M4220 3891 c0 -11 5 -23 10 -26 6 -4 10 5 10 19 0 14 -4 26 -10 26
-5 0 -10 -9 -10 -19z"/>
<path d="M2103 3893 c34 -5 34 -15 1 -59 l-26 -34 38 1 c32 2 34 3 10 6 l-28
5 27 28 c35 37 28 61 -17 59 -30 -2 -31 -2 -5 -6z"/>
<path d="M2862 3885 c-7 -8 -8 -15 -3 -15 5 0 11 -15 13 -32 2 -27 8 -33 28
-35 25 -3 25 -3 3 7 -15 6 -23 18 -23 34 0 18 6 26 23 29 l22 4 -23 2 c-13 0
-20 6 -17 11 9 15 -8 11 -23 -5z"/>
<path d="M2448 3873 c19 -8 15 -61 -5 -66 -10 -3 0 -5 22 -5 22 0 32 2 22 5
-15 4 -18 12 -15 39 3 29 1 34 -17 33 -11 0 -14 -3 -7 -6z"/>
<path d="M2510 3840 c0 -22 4 -40 8 -40 5 0 7 13 4 29 -2 16 1 32 7 35 7 5 11
-5 11 -28 0 -20 4 -36 9 -36 5 0 7 9 4 20 -3 11 -2 28 3 37 6 14 9 9 14 -22
l7 -40 2 43 c1 42 1 42 -34 42 -34 0 -35 -1 -35 -40z"/>
<path d="M2600 3824 c0 -30 4 -54 9 -54 5 0 7 8 4 18 -3 14 1 19 19 18 20 -1
23 4 23 34 0 31 -3 35 -27 36 -27 1 -28 -1 -28 -52z m48 10 c-4 -24 -24 -29
-32 -8 -8 20 13 49 27 35 5 -5 7 -17 5 -27z"/>
<path d="M2690 3865 c-20 -24 -4 -65 25 -65 18 0 26 7 31 25 7 27 -9 55 -31
55 -7 0 -18 -7 -25 -15z m38 -31 c-5 -28 -28 -29 -28 -1 0 13 3 27 7 31 10 10
25 -10 21 -30z"/>
<path d="M2780 3838 c0 -46 18 -51 22 -5 2 23 8 32 21 31 9 -1 17 2 17 7 0 5
-13 8 -30 7 -28 -2 -30 -5 -30 -40z"/>
<path d="M3288 3838 c-2 -21 0 -38 4 -38 5 0 8 14 8 30 0 27 8 35 33 31 4 0 7
3 7 9 0 5 -11 9 -24 8 -20 -2 -25 -8 -28 -40z"/>
<path d="M3364 3866 c-3 -8 -4 -25 -2 -38 2 -17 9 -23 28 -23 22 0 25 4 25 35
0 29 -4 36 -23 38 -13 2 -24 -3 -28 -12z m41 -26 c0 -27 -22 -39 -31 -16 -8
22 3 49 19 43 6 -2 12 -14 12 -27z"/>
<path d="M3442 3838 l1 -43 4 38 c2 20 8 37 13 37 5 0 11 -17 13 -37 l4 -38 1
38 c1 20 6 37 11 37 6 0 12 -17 14 -37 l4 -38 -1 40 c-1 38 -3 40 -33 43 -33
3 -33 3 -31 -40z"/>
<path d="M3784 3866 c-11 -29 1 -61 23 -64 27 -4 44 25 32 56 -9 25 -46 30
-55 8z m44 -32 c-4 -24 -24 -29 -32 -8 -8 20 13 49 27 35 5 -5 7 -17 5 -27z"/>
<path d="M3950 3871 c0 -6 7 -8 15 -5 8 3 20 2 27 -2 9 -6 5 -10 -12 -14 -16
-4 -26 -14 -28 -28 -3 -19 1 -22 28 -22 30 0 31 1 28 38 -3 32 -7 37 -30 40
-16 2 -28 -1 -28 -7z m44 -46 c-6 -16 -34 -21 -34 -7 0 13 11 22 26 22 8 0 11
-6 8 -15z"/>
<path d="M4047 3873 c-13 -13 -7 -32 13 -38 11 -3 20 -11 20 -17 0 -6 -9 -8
-20 -5 -11 3 -20 1 -20 -4 0 -5 11 -9 25 -9 31 0 35 35 5 45 -11 4 -18 11 -14
16 3 6 12 8 20 5 8 -3 14 -1 14 4 0 11 -33 14 -43 3z"/>
<path d="M4300 3865 c0 -8 7 -15 15 -15 8 0 15 7 15 15 0 8 -7 15 -15 15 -8 0
-15 -7 -15 -15z"/>
<path d="M4300 3805 c0 -28 15 -34 24 -9 10 25 7 34 -9 34 -9 0 -15 -9 -15
-25z"/>
<path d="M3010 3780 c0 -5 18 -10 39 -10 22 0 43 5 46 10 4 6 -12 10 -39 10
-25 0 -46 -4 -46 -10z"/>
<path d="M2103 3683 c31 -5 35 -17 10 -32 -17 -10 -17 -10 0 -11 11 0 17 -8
17 -21 0 -17 -5 -20 -25 -17 -14 3 -25 1 -25 -3 0 -5 13 -9 29 -9 31 0 49 26
32 43 -7 7 -7 15 0 23 16 20 1 34 -34 33 -30 -2 -31 -2 -4 -6z"/>
<path d="M488 3643 c166 -2 438 -2 605 0 166 1 30 2 -303 2 -333 0 -469 -1
-302 -2z"/>
<path d="M2457 3434 c-15 -31 -26 -59 -23 -61 7 -7 58 96 54 108 -2 6 -16 -16
-31 -47z"/>
<path d="M3032 3483 c12 -3 18 -17 20 -51 2 -33 7 -47 18 -48 9 0 10 1 3 3 -8
3 -13 23 -13 54 0 45 -2 49 -22 48 -17 -1 -18 -3 -6 -6z"/>
<path d="M3321 3473 c-1 -14 -6 -21 -14 -17 -21 8 -40 -22 -33 -51 5 -19 13
-25 34 -25 26 0 27 2 24 43 -4 54 -9 78 -11 50z m-6 -53 c0 -13 -5 -25 -11
-27 -14 -5 -25 22 -17 42 8 23 28 12 28 -15z"/>
<path d="M2100 3448 c-26 -44 -25 -51 6 -44 21 6 25 4 21 -8 -4 -9 -2 -16 2
-16 14 0 18 22 13 63 -5 46 -16 47 -42 5z m30 -3 c0 -15 -6 -25 -15 -25 -12 0
-13 4 -3 25 6 14 13 25 15 25 1 0 3 -11 3 -25z"/>
<path d="M2537 3425 c-15 -30 -23 -55 -19 -55 4 0 20 25 35 55 15 30 23 55 19
55 -4 0 -20 -25 -35 -55z"/>
<path d="M2687 3467 c-6 -17 3 -32 26 -40 9 -3 17 -14 17 -23 0 -12 -7 -15
-25 -12 -14 3 -25 1 -25 -3 0 -16 58 -10 64 7 7 19 -10 44 -30 44 -23 0 -16
28 9 33 20 4 19 4 -4 6 -15 0 -29 -5 -32 -12z"/>
<path d="M3452 3465 c-7 -8 -8 -15 -3 -15 5 0 11 -15 13 -32 2 -27 8 -33 28
-35 25 -3 25 -3 3 7 -28 12 -32 56 -5 63 16 4 16 5 -1 6 -10 0 -15 6 -12 11 9
15 -8 11 -23 -5z"/>
<path d="M2770 3451 c0 -6 7 -8 15 -5 8 3 20 2 27 -2 9 -6 5 -10 -12 -14 -16
-4 -26 -14 -28 -28 -3 -20 1 -22 28 -20 29 2 31 5 28 38 -3 30 -7 35 -30 38
-16 2 -28 -1 -28 -7z m50 -41 c0 -12 -28 -25 -36 -17 -9 9 6 27 22 27 8 0 14
-5 14 -10z"/>
<path d="M2852 3417 l1 -42 4 38 c2 20 8 37 13 37 5 0 11 -17 13 -37 l4 -38 1
38 c1 20 6 37 11 37 6 0 12 -17 14 -37 l4 -38 -1 40 c-1 37 -3 40 -33 42 -33
3 -33 2 -31 -40z"/>
<path d="M2941 3401 c1 -32 4 -48 7 -36 4 11 16 20 27 20 16 0 20 7 20 35 0
31 -3 35 -27 36 -27 1 -28 0 -27 -55z m44 19 c0 -27 -22 -39 -31 -16 -8 22 3
49 19 43 6 -2 12 -14 12 -27z"/>
<path d="M3110 3441 c-15 -29 3 -61 35 -61 14 0 25 4 25 8 0 5 -10 8 -21 8
-12 -1 -24 5 -26 12 -3 7 5 12 22 12 20 0 26 4 23 18 -5 25 -44 27 -58 3z m45
-1 c3 -5 -3 -10 -15 -10 -12 0 -18 5 -15 10 3 6 10 10 15 10 5 0 12 -4 15 -10z"/>
<path d="M3360 3451 c0 -6 7 -8 15 -5 8 3 20 2 27 -2 9 -6 5 -10 -12 -14 -16
-4 -26 -14 -28 -28 -3 -20 1 -22 28 -20 29 2 31 5 28 38 -3 30 -7 35 -30 38
-16 2 -28 -1 -28 -7z m50 -41 c0 -12 -28 -25 -36 -17 -9 9 6 27 22 27 8 0 14
-5 14 -10z"/>
<path d="M3530 3451 c0 -5 8 -7 19 -4 10 3 22 0 25 -6 4 -6 -1 -11 -11 -11
-11 0 -24 -5 -30 -11 -18 -18 -3 -39 28 -39 24 0 29 4 29 24 0 40 -11 56 -36
56 -13 0 -24 -4 -24 -9z m44 -46 c-4 -8 -12 -15 -20 -15 -8 0 -14 7 -14 15 0
8 9 15 20 15 13 0 18 -5 14 -15z"/>
<path d="M1015 3341 c-3 -5 -1 -12 5 -16 5 -3 10 1 10 9 0 18 -6 21 -15 7z"/>
<path d="M1050 3285 c0 -37 4 -65 10 -65 6 0 10 28 10 65 0 37 -4 65 -10 65
-6 0 -10 -28 -10 -65z"/>
<path d="M560 3280 c0 -38 4 -60 11 -60 8 0 10 17 7 50 l-5 50 31 -50 c17 -27
35 -50 41 -50 6 0 10 26 10 60 0 34 -4 60 -10 60 -6 0 -9 -20 -7 -47 l3 -48
-32 48 c-17 26 -35 47 -40 47 -5 0 -9 -27 -9 -60z"/>
<path d="M930 3280 c0 -38 4 -60 11 -60 7 0 9 10 7 25 -5 22 -2 25 24 25 18 0
27 4 23 10 -4 6 -16 10 -27 8 -14 -2 -22 3 -24 15 -2 13 5 17 27 17 16 0 29 5
29 10 0 6 -16 10 -35 10 l-35 0 0 -60z"/>
<path d="M450 3296 c0 -18 -4 -24 -14 -20 -8 3 -17 1 -21 -5 -3 -7 2 -11 14
-11 14 0 21 -6 21 -20 0 -11 5 -20 11 -20 6 0 9 9 6 20 -4 15 0 20 14 20 10 0
19 5 19 10 0 6 -8 10 -17 8 -12 -2 -17 3 -15 14 1 9 -2 19 -8 23 -6 4 -10 -4
-10 -19z"/>
<path d="M682 3298 c-15 -15 -15 -51 0 -66 18 -18 58 -15 58 4 0 13 -3 14 -15
4 -8 -6 -19 -9 -25 -5 -20 12 -10 25 20 25 33 0 35 3 20 31 -12 21 -40 25 -58
7z m48 -18 c0 -5 -9 -10 -20 -10 -11 0 -20 5 -20 10 0 6 9 10 20 10 11 0 20
-4 20 -10z"/>
<path d="M760 3296 c0 -22 21 -76 30 -76 5 0 12 15 16 33 l7 32 9 -32 c11 -43
25 -42 37 5 13 46 13 52 1 52 -5 0 -10 -13 -10 -30 0 -37 -18 -40 -22 -3 -4
34 -28 43 -28 11 0 -12 -5 -30 -10 -38 -7 -11 -10 -5 -10 23 0 20 -4 37 -10
37 -5 0 -10 -6 -10 -14z"/>
<path d="M1010 3265 c0 -25 5 -45 10 -45 6 0 10 20 10 45 0 25 -4 45 -10 45
-5 0 -10 -20 -10 -45z"/>
<path d="M1091 3288 c-13 -36 2 -63 34 -63 16 0 30 6 33 13 3 11 0 12 -16 3
-15 -8 -23 -7 -32 4 -11 13 -8 15 19 15 32 0 41 16 19 38 -19 19 -48 14 -57
-10z m49 -8 c0 -5 -9 -10 -21 -10 -11 0 -17 5 -14 10 3 6 13 10 21 10 8 0 14
-4 14 -10z"/>
<path d="M3640 3225 c0 -56 3 -65 18 -64 10 0 12 3 5 6 -16 6 -18 103 -3 103
6 0 10 5 10 10 0 6 -7 10 -15 10 -12 0 -15 -14 -15 -65z"/>
<path d="M2090 3244 c0 -14 4 -23 8 -20 15 9 35 -12 28 -29 -4 -11 -13 -15
-26 -12 -11 3 -20 1 -20 -4 0 -5 13 -9 29 -9 21 0 32 6 36 20 7 23 -10 50 -31
50 -23 0 -16 18 9 23 19 4 18 4 -5 6 -24 1 -28 -3 -28 -25z"/>
<path d="M2785 3261 c3 -5 -3 -12 -12 -14 -17 -4 -17 -5 0 -6 13 -1 17 -10 17
-36 0 -30 3 -35 23 -34 16 1 18 2 5 6 -12 3 -18 14 -18 33 0 19 6 30 18 33 16
4 16 5 0 6 -10 0 -18 6 -18 11 0 6 -5 10 -11 10 -5 0 -8 -4 -4 -9z"/>
<path d="M2442 3238 c-25 -25 -6 -68 30 -68 10 0 18 4 18 9 0 5 -8 8 -17 7
-13 -1 -18 6 -18 24 0 20 4 25 23 23 13 -2 21 1 17 7 -8 14 -38 13 -53 -2z"/>
<path d="M2520 3230 c-14 -26 3 -60 31 -60 24 0 33 21 25 55 -8 31 -41 34 -56
5z m44 -33 c-3 -9 -10 -17 -15 -17 -14 0 -22 27 -15 47 6 15 8 15 22 2 8 -9
12 -23 8 -32z"/>
<path d="M2600 3209 c0 -22 4 -39 9 -39 4 0 6 10 4 23 -2 12 1 28 6 36 14 22
33 2 29 -30 -3 -16 -1 -29 4 -29 5 0 8 17 6 38 -3 33 -6 37 -30 38 -26 1 -28
-2 -28 -37z"/>
<path d="M2697 3243 c-13 -13 -7 -32 13 -38 11 -3 20 -11 20 -17 0 -6 -9 -8
-20 -5 -11 3 -20 1 -20 -4 0 -5 11 -9 25 -9 31 0 35 35 5 45 -11 4 -18 11 -14
16 3 6 12 8 20 5 8 -3 14 -1 14 4 0 11 -33 14 -43 3z"/>
<path d="M2941 3213 c-1 -41 0 -43 29 -43 28 0 30 2 30 40 0 48 -17 54 -22 8
-4 -43 -21 -42 -29 2 l-6 35 -2 -42z"/>
<path d="M3025 3240 c-8 -14 13 -40 32 -40 8 0 11 -5 8 -10 -4 -6 -15 -8 -26
-5 -11 4 -19 2 -19 -5 0 -6 12 -10 27 -8 34 4 43 33 14 43 -12 3 -21 11 -21
16 0 6 9 7 20 4 11 -4 20 -2 20 4 0 14 -47 14 -55 1z"/>
<path d="M3112 3238 c-15 -15 -15 -41 0 -56 14 -14 58 -16 58 -4 0 5 -10 8
-21 8 -12 -1 -24 5 -26 12 -3 7 5 12 22 12 20 0 26 4 23 18 -4 21 -39 27 -56
10z m43 -8 c3 -5 -3 -10 -15 -10 -12 0 -18 5 -15 10 3 6 10 10 15 10 5 0 12
-4 15 -10z"/>
<path d="M3200 3210 c0 -22 5 -40 10 -40 6 0 10 14 10 30 0 23 4 30 20 30 11
0 20 5 20 10 0 6 -13 10 -30 10 -28 0 -30 -2 -30 -40z"/>
<path d="M3280 3229 c0 -12 8 -23 20 -26 11 -3 17 -9 14 -15 -3 -5 -14 -6 -25
-3 -11 4 -19 2 -19 -4 0 -6 14 -11 30 -11 24 0 30 4 30 21 0 12 -8 23 -20 26
-11 3 -17 10 -14 15 3 5 12 7 20 4 8 -3 14 -1 14 4 0 6 -11 10 -25 10 -19 0
-25 -5 -25 -21z"/>
<path d="M3440 3230 c0 -5 16 -10 35 -10 19 0 35 5 35 10 0 6 -16 10 -35 10
-19 0 -35 -4 -35 -10z"/>
<path d="M3440 3200 c0 -5 16 -10 35 -10 19 0 35 5 35 10 0 6 -16 10 -35 10
-19 0 -35 -4 -35 -10z"/>
<path d="M2424 2795 c0 -176 2 -247 3 -157 2 90 2 234 0 320 -1 86 -3 13 -3
-163z"/>
<path d="M2637 3073 c-4 -3 -7 -14 -7 -24 0 -10 -8 -23 -17 -29 -17 -10 -17
-10 0 -20 9 -6 17 -20 17 -30 0 -12 7 -20 18 -20 13 0 14 2 3 9 -17 11 -19 93
-2 99 13 4 15 22 3 22 -5 0 -12 -3 -15 -7z"/>
<path d="M2112 3062 c-41 -14 -31 -106 11 -100 17 2 22 10 22 33 0 25 -4 30
-23 29 -29 -1 -23 19 9 26 17 4 20 8 9 11 -8 4 -21 4 -28 1z m21 -78 c-3 -8
-9 -14 -13 -14 -14 0 -22 20 -16 37 5 12 9 13 21 3 7 -6 11 -18 8 -26z"/>
<path d="M3302 3045 c0 -16 2 -22 5 -12 2 9 2 23 0 30 -3 6 -5 -1 -5 -18z"/>
<path d="M3533 3015 c0 -45 1 -52 6 -26 8 48 31 53 31 7 0 -20 5 -36 10 -36
12 0 13 50 1 69 -5 8 -16 11 -24 8 -11 -4 -17 1 -20 16 -2 12 -4 -5 -4 -38z"/>
<path d="M3720 3045 c0 -14 5 -25 10 -25 6 0 10 11 10 25 0 14 -4 25 -10 25
-5 0 -10 -11 -10 -25z"/>
<path d="M4383 3063 c-21 -7 -15 -22 6 -16 30 8 33 -13 6 -45 -14 -16 -25 -33
-25 -36 0 -3 16 -6 36 -6 19 0 33 4 30 9 -3 5 -16 7 -29 4 l-22 -6 23 25 c37
41 21 86 -25 71z"/>
<path d="M4459 3065 c0 0 -2 -12 -4 -27 -3 -24 0 -28 21 -28 19 0 25 -5 22
-17 -2 -11 -12 -18 -26 -17 -12 0 -22 -3 -22 -8 0 -4 13 -8 29 -8 21 0 32 6
36 20 7 23 -10 50 -31 50 -8 0 -14 5 -14 10 0 6 9 10 20 10 11 0 20 3 20 8 0
4 -11 7 -25 7 -14 0 -25 0 -26 0z"/>
<path d="M4990 3060 c0 -5 5 -10 10 -10 6 0 10 5 10 10 0 6 -4 10 -10 10 -5 0
-10 -4 -10 -10z"/>
<path d="M3383 3053 c14 -4 17 -13 15 -41 -3 -32 -6 -37 -25 -35 -13 2 -23 -2
-23 -7 0 -6 14 -10 30 -10 29 0 30 1 30 50 0 46 -2 50 -22 49 -18 -1 -19 -2
-5 -6z"/>
<path d="M4882 3045 c-7 -8 -8 -15 -3 -15 5 0 11 -15 13 -32 2 -27 8 -33 28
-35 14 -1 18 0 8 3 -12 4 -18 15 -18 34 0 19 6 30 18 33 16 4 16 5 0 6 -10 0
-18 6 -18 11 0 14 -13 12 -28 -5z"/>
<path d="M2770 2999 c0 -22 5 -39 11 -39 6 0 9 9 6 20 -3 10 1 27 8 37 12 17
14 16 20 -9 4 -15 4 -32 0 -37 -3 -6 -1 -11 5 -11 7 0 10 15 8 38 -3 33 -6 37
-30 38 -26 1 -28 -2 -28 -37z"/>
<path d="M2854 3028 c-5 -8 -2 -9 10 -5 10 4 23 4 29 0 7 -4 2 -9 -13 -13 -39
-9 -34 -44 8 -48 28 -3 32 0 32 22 0 13 -3 31 -6 40 -7 19 -49 21 -60 4z m44
-40 c-6 -18 -28 -21 -28 -4 0 9 7 16 16 16 9 0 14 -5 12 -12z"/>
<path d="M2930 3000 c0 -23 5 -40 11 -40 7 0 9 12 7 30 -3 17 -1 33 4 36 4 3
8 -11 8 -30 0 -20 4 -36 8 -36 5 0 7 13 4 29 -2 16 1 32 7 35 7 5 11 -5 11
-28 0 -20 3 -36 8 -36 4 0 6 18 4 40 -4 38 -6 40 -38 40 -33 0 -34 -1 -34 -40z"/>
<path d="M3024 3026 c-3 -8 -4 -25 -2 -38 2 -18 10 -24 36 -26 19 -2 32 1 32
8 0 7 -7 10 -15 6 -18 -6 -45 2 -45 15 0 5 14 9 30 9 32 0 37 9 18 28 -16 16
-47 15 -54 -2z m41 -6 c3 -6 -4 -10 -17 -10 -18 0 -20 2 -8 10 19 12 18 12 25
0z"/>
<path d="M3120 3025 c0 -8 7 -15 15 -15 8 0 15 7 15 15 0 8 -7 15 -15 15 -8 0
-15 -7 -15 -15z"/>
<path d="M3450 3025 c-20 -24 -4 -65 25 -65 18 0 26 7 31 25 7 27 -9 55 -31
55 -7 0 -18 -7 -25 -15z m38 -31 c-5 -28 -28 -29 -28 -1 0 13 3 27 7 31 10 10
25 -10 21 -30z"/>
<path d="M3610 3001 c0 -49 17 -55 22 -8 4 42 21 41 30 -3 l6 -35 -1 40 c-2
36 -5 40 -29 43 -27 3 -28 1 -28 -37z"/>
<path d="M3950 3030 c0 -7 8 -9 19 -5 11 3 22 1 26 -5 3 -5 -2 -10 -12 -10
-11 0 -24 -5 -30 -11 -18 -18 -3 -39 29 -39 28 0 29 2 26 38 -3 32 -7 37 -30
40 -16 2 -28 -2 -28 -8z m37 -47 c-9 -9 -19 -14 -23 -11 -10 10 6 28 24 28 15
0 15 -1 -1 -17z"/>
<path d="M4035 3020 c-9 -27 3 -60 21 -60 11 0 12 4 3 19 -14 21 -5 56 11 46
6 -3 9 -23 7 -43 -2 -28 -7 -37 -20 -36 -9 1 -17 -2 -17 -7 0 -5 9 -9 20 -9
25 0 40 29 40 74 0 33 -2 36 -29 36 -21 0 -32 -6 -36 -20z"/>
<path d="M4120 3020 c-15 -28 4 -60 35 -60 14 0 25 4 25 8 0 5 -10 8 -21 8
-12 -1 -24 5 -26 12 -3 8 6 12 27 12 28 0 30 2 20 20 -6 11 -19 20 -30 20 -11
0 -24 -9 -30 -20z m45 0 c3 -6 -4 -10 -17 -10 -18 0 -20 2 -8 10 19 12 18 12
25 0z"/>
<path d="M4220 3025 c0 -8 5 -15 10 -15 6 0 10 7 10 15 0 8 -4 15 -10 15 -5 0
-10 -7 -10 -15z"/>
<path d="M4710 3030 c0 -7 8 -9 19 -5 11 3 22 1 26 -5 3 -5 -2 -10 -12 -10
-11 0 -24 -5 -30 -11 -18 -18 -3 -39 29 -39 28 0 29 2 26 38 -3 32 -7 37 -30
40 -16 2 -28 -2 -28 -8z m37 -47 c-9 -9 -19 -14 -23 -11 -10 10 6 28 24 28 15
0 15 -1 -1 -17z"/>
<path d="M4802 3028 c-27 -27 -6 -68 35 -68 13 0 23 4 23 10 0 5 -10 9 -22 7
-17 -1 -24 4 -26 21 -3 21 6 27 37 23 7 -2 10 2 6 8 -8 15 -38 14 -53 -1z"/>
<path d="M4970 3029 c0 -5 5 -7 10 -4 6 4 10 -6 10 -24 0 -20 -6 -31 -17 -34
-10 -3 0 -5 22 -5 22 0 33 2 25 4 -12 4 -15 14 -12 39 4 30 1 35 -17 35 -12 0
-21 -5 -21 -11z"/>
<path d="M5044 3024 c3 -9 9 -27 12 -40 9 -35 31 -29 44 12 16 46 5 56 -13 13
l-14 -34 -7 33 c-4 17 -12 32 -18 32 -6 0 -7 -7 -4 -16z"/>
<path d="M3120 2975 c0 -8 7 -15 15 -15 8 0 15 7 15 15 0 8 -7 15 -15 15 -8 0
-15 -7 -15 -15z"/>
<path d="M3797 2965 c-3 -16 0 -24 7 -22 14 4 21 47 8 47 -5 0 -12 -11 -15
-25z"/>
<path d="M4220 2975 c0 -8 5 -15 10 -15 6 0 10 7 10 15 0 8 -4 15 -10 15 -5 0
-10 -7 -10 -15z"/>
<path d="M4556 2968 c-9 -36 -7 -41 9 -28 16 13 21 50 6 50 -5 0 -11 -10 -15
-22z"/>
<path d="M2637 2863 c-4 -3 -7 -14 -7 -24 0 -10 -8 -23 -17 -29 -17 -10 -17
-10 0 -20 9 -6 17 -20 17 -30 0 -12 7 -20 18 -20 13 0 14 2 3 9 -17 11 -19 93
-2 99 13 4 15 22 3 22 -5 0 -12 -3 -15 -7z"/>
<path d="M3302 2835 c0 -16 2 -22 5 -12 2 9 2 23 0 30 -3 6 -5 -1 -5 -18z"/>
<path d="M3720 2835 c0 -14 5 -25 10 -25 6 0 10 11 10 25 0 14 -4 25 -10 25
-5 0 -10 -11 -10 -25z"/>
<path d="M4375 2851 c-3 -7 2 -11 14 -11 29 0 36 -19 10 -28 l-23 -9 23 -6
c29 -7 22 -32 -8 -31 -11 0 -21 -3 -21 -8 0 -4 14 -8 30 -8 28 0 36 10 30 35
-2 6 -2 22 -1 38 1 15 -3 27 -8 27 -5 0 -16 3 -24 6 -8 3 -18 1 -22 -5z"/>
<path d="M4465 2844 c-30 -30 -16 -94 21 -94 17 0 25 7 30 25 14 55 -19 100
-51 69z m19 -29 c-9 -14 -17 -25 -19 -25 -1 0 0 11 3 25 2 14 11 25 18 25 12
0 11 -5 -2 -25z m12 -41 c-3 -8 -10 -13 -16 -9 -6 4 -5 13 3 26 13 21 23 8 13
-17z"/>
<path d="M4990 2850 c0 -5 5 -10 10 -10 6 0 10 5 10 10 0 6 -4 10 -10 10 -5 0
-10 -4 -10 -10z"/>
<path d="M2103 2843 c32 -5 31 -1 12 -46 -17 -42 -18 -47 -7 -47 5 0 15 23 24
50 l16 50 -36 -1 c-31 -2 -32 -3 -9 -6z"/>
<path d="M3383 2843 c14 -4 17 -13 15 -41 -3 -32 -6 -37 -25 -35 -13 2 -23 -2
-23 -7 0 -6 14 -10 30 -10 29 0 30 1 30 50 0 46 -2 50 -22 49 -18 -1 -19 -2
-5 -6z"/>
<path d="M4882 2835 c-7 -8 -8 -15 -3 -15 5 0 11 -15 13 -32 2 -27 8 -33 28
-35 14 -1 18 0 8 3 -12 4 -18 15 -18 34 0 19 6 30 18 33 16 4 16 5 0 6 -10 0
-18 6 -18 11 0 14 -13 12 -28 -5z"/>
<path d="M2770 2789 c0 -22 5 -39 11 -39 6 0 9 9 6 20 -3 10 1 27 8 37 12 17
14 16 20 -9 4 -15 4 -32 0 -37 -3 -6 -1 -11 5 -11 7 0 10 15 8 38 -3 33 -6 37
-30 38 -26 1 -28 -2 -28 -37z"/>
<path d="M2854 2818 c-5 -8 -2 -9 10 -5 10 4 23 4 29 0 7 -4 2 -9 -13 -13 -39
-9 -34 -44 8 -48 28 -3 32 0 32 22 0 13 -3 31 -6 40 -7 19 -49 21 -60 4z m44
-40 c-6 -18 -28 -21 -28 -4 0 9 7 16 16 16 9 0 14 -5 12 -12z"/>
<path d="M2930 2790 c0 -23 5 -40 11 -40 7 0 9 12 7 30 -3 17 -1 33 4 36 4 3
8 -11 8 -30 0 -20 4 -36 8 -36 5 0 7 13 4 29 -2 16 1 32 7 35 7 5 11 -5 11
-28 0 -20 3 -36 8 -36 4 0 6 18 4 40 -4 38 -6 40 -38 40 -33 0 -34 -1 -34 -40z"/>
<path d="M3024 2816 c-3 -8 -4 -25 -2 -38 2 -18 10 -24 36 -26 19 -2 32 1 32
8 0 7 -7 10 -15 6 -18 -6 -45 2 -45 15 0 5 14 9 30 9 32 0 37 9 18 28 -16 16
-47 15 -54 -2z m41 -6 c3 -6 -4 -10 -17 -10 -18 0 -20 2 -8 10 19 12 18 12 25
0z"/>
<path d="M3120 2815 c0 -8 7 -15 15 -15 8 0 15 7 15 15 0 8 -7 15 -15 15 -8 0
-15 -7 -15 -15z"/>
<path d="M3444 2818 c-5 -8 -2 -9 10 -5 10 4 23 4 29 0 7 -4 2 -9 -13 -13 -39
-9 -34 -44 8 -48 29 -3 32 -1 32 25 0 16 -5 34 -12 41 -15 15 -45 15 -54 0z
m44 -40 c-6 -18 -28 -21 -28 -4 0 9 7 16 16 16 9 0 14 -5 12 -12z"/>
<path d="M3531 2785 l2 -40 6 34 c8 48 31 53 31 7 0 -20 5 -36 10 -36 12 0 13
49 2 67 -4 7 -18 11 -30 10 -19 -1 -22 -7 -21 -42z"/>
<path d="M3614 2816 c-11 -30 1 -61 25 -64 13 -2 28 1 34 7 7 7 2 10 -18 8
-15 -1 -30 4 -32 11 -3 8 6 12 27 12 28 0 30 2 20 20 -12 23 -48 27 -56 6z
m41 -6 c3 -6 -4 -10 -17 -10 -18 0 -20 2 -8 10 19 12 18 12 25 0z"/>
<path d="M3950 2820 c0 -7 8 -9 19 -5 11 3 22 1 26 -5 3 -5 -2 -10 -12 -10
-11 0 -24 -5 -30 -11 -18 -18 -3 -39 29 -39 28 0 29 2 26 38 -3 32 -7 37 -30
40 -16 2 -28 -2 -28 -8z m37 -47 c-9 -9 -19 -14 -23 -11 -10 10 6 28 24 28 15
0 15 -1 -1 -17z"/>
<path d="M4035 2810 c-9 -27 3 -60 21 -60 11 0 12 4 3 19 -14 21 -5 56 11 46
6 -3 9 -23 7 -43 -2 -28 -7 -37 -20 -36 -9 1 -17 -2 -17 -7 0 -5 9 -9 20 -9
25 0 40 29 40 74 0 33 -2 36 -29 36 -21 0 -32 -6 -36 -20z"/>
<path d="M4120 2810 c-15 -28 4 -60 35 -60 14 0 25 4 25 8 0 5 -10 8 -21 8
-12 -1 -24 5 -26 12 -3 8 6 12 27 12 28 0 30 2 20 20 -6 11 -19 20 -30 20 -11
0 -24 -9 -30 -20z m45 0 c3 -6 -4 -10 -17 -10 -18 0 -20 2 -8 10 19 12 18 12
25 0z"/>
<path d="M4220 2815 c0 -8 5 -15 10 -15 6 0 10 7 10 15 0 8 -4 15 -10 15 -5 0
-10 -7 -10 -15z"/>
<path d="M4710 2820 c0 -7 8 -9 19 -5 11 3 22 1 26 -5 3 -5 -2 -10 -12 -10
-11 0 -24 -5 -30 -11 -18 -18 -3 -39 29 -39 28 0 29 2 26 38 -3 32 -7 37 -30
40 -16 2 -28 -2 -28 -8z m37 -47 c-9 -9 -19 -14 -23 -11 -10 10 6 28 24 28 15
0 15 -1 -1 -17z"/>
<path d="M4802 2818 c-27 -27 -6 -68 35 -68 13 0 23 4 23 10 0 5 -10 9 -22 7
-17 -1 -24 4 -26 21 -3 21 6 27 37 23 7 -2 10 2 6 8 -8 15 -38 14 -53 -1z"/>
<path d="M4970 2819 c0 -5 5 -7 10 -4 6 4 10 -6 10 -24 0 -20 -6 -31 -17 -34
-10 -3 0 -5 22 -5 22 0 33 2 25 4 -12 4 -15 14 -12 39 4 30 1 35 -17 35 -12 0
-21 -5 -21 -11z"/>
<path d="M5044 2814 c3 -9 9 -27 12 -40 9 -35 31 -29 44 12 16 46 5 56 -13 13
l-14 -34 -7 33 c-4 17 -12 32 -18 32 -6 0 -7 -7 -4 -16z"/>
<path d="M3120 2765 c0 -8 7 -15 15 -15 8 0 15 7 15 15 0 8 -7 15 -15 15 -8 0
-15 -7 -15 -15z"/>
<path d="M3797 2755 c-3 -16 0 -24 7 -22 14 4 21 47 8 47 -5 0 -12 -11 -15
-25z"/>
<path d="M4220 2765 c0 -8 5 -15 10 -15 6 0 10 7 10 15 0 8 -4 15 -10 15 -5 0
-10 -7 -10 -15z"/>
<path d="M4556 2758 c-9 -36 -7 -41 9 -28 16 13 21 50 6 50 -5 0 -11 -10 -15
-22z"/>
<path d="M2637 2653 c-4 -3 -7 -14 -7 -24 0 -10 -8 -23 -17 -29 -17 -10 -17
-10 0 -20 9 -6 17 -20 17 -30 0 -12 7 -20 18 -20 13 0 14 2 3 9 -17 11 -19 93
-2 99 13 4 15 22 3 22 -5 0 -12 -3 -15 -7z"/>
<path d="M2102 2641 c-7 -4 -11 -18 -11 -32 1 -13 1 -28 -1 -34 -7 -26 1 -36
28 -33 19 2 28 9 30 26 2 13 -2 22 -9 22 -10 0 -10 3 -1 12 7 7 12 15 12 20 0
13 -35 27 -48 19z m28 -27 c0 -9 -5 -14 -12 -12 -18 6 -21 28 -4 28 9 0 16 -7
16 -16z m4 -39 c3 -9 -1 -18 -10 -22 -19 -7 -28 2 -21 22 8 19 23 19 31 0z"/>
<path d="M3302 2625 c0 -16 2 -22 5 -12 2 9 2 23 0 30 -3 6 -5 -1 -5 -18z"/>
<path d="M3531 2597 c-1 -58 -1 -58 27 -55 24 3 27 7 27 38 0 28 -4 35 -20 35
-11 0 -23 9 -27 20 -3 11 -6 -5 -7 -38z m43 -2 c7 -18 -2 -45 -15 -45 -13 0
-22 27 -15 45 3 8 10 15 15 15 5 0 11 -7 15 -15z"/>
<path d="M3630 2631 c0 -11 5 -23 10 -26 6 -4 10 5 10 19 0 14 -4 26 -10 26
-5 0 -10 -9 -10 -19z"/>
<path d="M4293 2643 c-23 -9 -14 -20 12 -15 29 5 35 -18 9 -38 -8 -8 -20 -22
-25 -32 -9 -16 -6 -18 26 -18 19 0 35 4 35 9 0 4 -12 6 -27 3 l-28 -5 28 30
c15 16 27 34 27 41 0 10 -32 34 -42 31 -2 0 -9 -3 -15 -6z"/>
<path d="M4387 2637 c-10 -8 -15 -26 -14 -52 2 -35 5 -40 28 -43 28 -3 45 20
32 41 -4 7 -6 22 -5 33 4 26 -20 37 -41 21z m31 -19 c-6 -18 -28 -21 -28 -4 0
9 7 16 16 16 9 0 14 -5 12 -12z m-3 -48 c0 -7 -6 -15 -12 -17 -8 -3 -13 4 -13
17 0 13 5 20 13 18 6 -3 12 -11 12 -18z"/>
<path d="M4900 2640 c0 -5 5 -10 10 -10 6 0 10 5 10 10 0 6 -4 10 -10 10 -5 0
-10 -4 -10 -10z"/>
<path d="M3360 2590 c0 -46 2 -50 24 -50 28 0 48 21 37 38 -4 8 -6 24 -3 38 4
21 1 24 -27 24 -31 0 -31 -1 -31 -50z m44 25 c-1 -18 -34 -18 -34 0 0 10 7 15
18 13 9 -2 17 -8 16 -13z m4 -42 c-5 -26 -38 -29 -38 -4 0 15 6 21 21 21 14 0
19 -5 17 -17z"/>
<path d="M4803 2625 c-15 -17 -17 -29 -3 -20 6 4 10 -8 10 -29 0 -31 3 -36 23
-36 20 1 20 2 5 11 -23 13 -25 64 -3 55 8 -3 15 -1 15 4 0 6 -7 10 -16 10 -8
0 -12 5 -9 10 9 15 -8 11 -22 -5z"/>
<path d="M2770 2579 c0 -22 5 -39 11 -39 6 0 9 9 6 20 -3 10 1 27 8 37 12 17
14 16 20 -9 4 -15 4 -32 0 -37 -3 -6 -1 -11 5 -11 7 0 10 15 8 38 -3 33 -6 37
-30 38 -26 1 -28 -2 -28 -37z"/>
<path d="M2854 2608 c-5 -8 -2 -9 10 -5 10 4 23 4 29 0 7 -4 2 -9 -13 -13 -39
-9 -34 -44 8 -48 28 -3 32 0 32 22 0 13 -3 31 -6 40 -7 19 -49 21 -60 4z m44
-40 c-6 -18 -28 -21 -28 -4 0 9 7 16 16 16 9 0 14 -5 12 -12z"/>
<path d="M2930 2580 c0 -23 5 -40 11 -40 7 0 9 12 7 30 -3 17 -1 33 4 36 4 3
8 -11 8 -30 0 -20 4 -36 8 -36 5 0 7 13 4 29 -2 16 1 32 7 35 7 5 11 -5 11
-28 0 -20 3 -36 8 -36 4 0 6 18 4 40 -4 38 -6 40 -38 40 -33 0 -34 -1 -34 -40z"/>
<path d="M3024 2606 c-3 -8 -4 -25 -2 -38 2 -18 10 -24 36 -26 19 -2 32 1 32
8 0 7 -7 10 -15 6 -18 -6 -45 2 -45 15 0 5 14 9 30 9 32 0 37 9 18 28 -16 16
-47 15 -54 -2z m41 -6 c3 -6 -4 -10 -17 -10 -18 0 -20 2 -8 10 19 12 18 12 25
0z"/>
<path d="M3120 2605 c0 -8 7 -15 15 -15 8 0 15 7 15 15 0 8 -7 15 -15 15 -8 0
-15 -7 -15 -15z"/>
<path d="M3450 2605 c-20 -24 -4 -65 25 -65 18 0 26 7 31 25 7 27 -9 55 -31
55 -7 0 -18 -7 -25 -15z m38 -31 c-5 -28 -28 -29 -28 -1 0 13 3 27 7 31 10 10
25 -10 21 -30z"/>
<path d="M3864 2608 c-5 -8 -2 -9 10 -5 10 4 23 4 29 0 7 -4 2 -9 -13 -13 -39
-9 -34 -44 8 -48 28 -3 32 0 32 22 0 13 -3 31 -6 40 -7 19 -49 21 -60 4z m44
-40 c-6 -18 -28 -21 -28 -4 0 9 7 16 16 16 9 0 14 -5 12 -12z"/>
<path d="M3951 2598 c-11 -30 5 -61 29 -55 13 3 17 0 13 -9 -3 -9 -13 -12 -24
-9 -11 4 -19 2 -19 -5 0 -6 12 -10 28 -8 25 3 27 7 30 56 3 50 2 52 -23 52
-17 0 -28 -7 -34 -22z m39 -18 c0 -10 -5 -22 -10 -25 -13 -8 -24 20 -16 41 8
20 26 9 26 -16z"/>
<path d="M4040 2606 c-6 -8 -10 -25 -8 -38 2 -18 10 -24 36 -26 18 -2 32 1 32
7 0 6 -10 10 -21 8 -12 -1 -24 4 -26 11 -3 8 5 12 22 12 21 0 26 4 21 16 -3 9
-6 18 -6 20 0 10 -39 2 -50 -10z m35 -6 c3 -5 -1 -10 -10 -10 -9 0 -13 5 -10
10 3 6 8 10 10 10 2 0 7 -4 10 -10z"/>
<path d="M4130 2605 c0 -8 7 -15 15 -15 8 0 15 7 15 15 0 8 -7 15 -15 15 -8 0
-15 -7 -15 -15z"/>
<path d="M4624 2608 c-5 -8 -2 -9 10 -5 10 4 23 4 29 0 7 -4 2 -9 -13 -13 -39
-9 -34 -44 8 -48 28 -3 32 0 32 22 0 13 -3 31 -6 40 -7 19 -49 21 -60 4z m44
-40 c-6 -18 -28 -21 -28 -4 0 9 7 16 16 16 9 0 14 -5 12 -12z"/>
<path d="M4720 2606 c-20 -26 -8 -61 23 -64 15 -2 27 1 27 6 0 5 -8 9 -17 8
-13 -1 -18 6 -18 24 0 18 5 25 18 24 9 -1 17 2 17 7 0 14 -36 10 -50 -5z"/>
<path d="M4889 2611 c21 -14 23 -59 3 -64 -9 -3 1 -5 23 -5 22 0 32 2 23 5
-13 3 -18 15 -18 39 0 29 -4 34 -22 34 -18 0 -20 -2 -9 -9z"/>
<path d="M4967 2580 c9 -22 20 -40 24 -40 11 0 41 71 34 79 -8 8 -25 -20 -26
-44 0 -15 -4 -12 -15 13 -20 46 -35 40 -17 -8z"/>
<path d="M5052 2608 c-15 -15 -15 -41 0 -56 14 -14 58 -16 58 -4 0 5 -10 8
-21 8 -12 -1 -24 5 -26 12 -3 7 5 12 22 12 20 0 26 4 23 18 -4 21 -39 27 -56
10z m43 -8 c3 -5 -3 -10 -15 -10 -12 0 -18 5 -15 10 3 6 10 10 15 10 5 0 12
-4 15 -10z"/>
<path d="M3120 2555 c0 -8 7 -15 15 -15 8 0 15 7 15 15 0 8 -7 15 -15 15 -8 0
-15 -7 -15 -15z"/>
<path d="M3710 2538 c1 -31 1 -32 15 -14 19 25 19 46 0 46 -10 0 -15 -10 -15
-32z"/>
<path d="M4130 2555 c0 -8 7 -15 15 -15 8 0 15 7 15 15 0 8 -7 15 -15 15 -8 0
-15 -7 -15 -15z"/>
<path d="M4470 2538 c1 -31 1 -32 15 -14 19 25 19 46 0 46 -10 0 -15 -10 -15
-32z"/>
<path d="M2440 2440 c0 -5 5 -10 10 -10 15 0 13 -97 -2 -103 -8 -3 -6 -6 5 -6
14 -1 17 8 17 64 0 51 -3 65 -15 65 -8 0 -15 -4 -15 -10z"/>
<path d="M2096 2424 c-9 -8 -16 -19 -16 -24 0 -18 31 -39 48 -33 15 6 15 5 3
-11 -8 -9 -20 -15 -28 -12 -7 3 -13 1 -13 -4 0 -14 34 -12 48 2 7 7 12 27 12
45 0 41 -30 61 -54 37z m34 -24 c0 -11 -7 -20 -15 -20 -8 0 -15 9 -15 20 0 11
7 20 15 20 8 0 15 -9 15 -20z"/>
<path d="M2530 2395 c0 -8 7 -15 15 -15 8 0 15 7 15 15 0 8 -7 15 -15 15 -8 0
-15 -7 -15 -15z"/>
<path d="M2530 2335 c0 -28 15 -34 24 -9 10 25 7 34 -9 34 -9 0 -15 -9 -15
-25z"/>
<path d="M2004 2208 c-5 -8 -2 -9 9 -5 14 5 17 0 17 -32 0 -22 -6 -42 -12 -44
-7 -3 3 -5 22 -5 19 0 28 2 20 4 -11 3 -14 16 -12 49 4 40 2 45 -16 45 -12 0
-24 -5 -28 -12z"/>
<path d="M2087 2194 c-7 -39 8 -74 33 -74 21 0 34 31 28 71 -2 17 -10 25 -29
27 -22 3 -27 -2 -32 -24z m32 -6 c-17 -34 -19 -34 -19 -5 0 18 5 27 15 27 13
0 14 -4 4 -22z m21 -15 c0 -26 -16 -47 -29 -39 -7 5 -6 15 5 32 19 29 24 30
24 7z"/>
<path d="M2457 1964 c-15 -31 -26 -59 -23 -61 7 -7 58 96 54 108 -2 6 -16 -16
-31 -47z"/>
<path d="M2880 2010 c0 -5 5 -10 10 -10 6 0 10 5 10 10 0 6 -4 10 -10 10 -5 0
-10 -4 -10 -10z"/>
<path d="M3198 2013 c6 -2 12 -17 12 -31 0 -50 11 -72 34 -71 17 1 17 2 4 6
-14 3 -18 15 -18 54 0 44 -2 49 -22 48 -13 0 -17 -3 -10 -6z"/>
<path d="M3410 2002 c0 -13 -7 -18 -22 -18 -20 1 -23 -4 -23 -34 0 -31 3 -35
28 -38 27 -3 27 -2 27 52 0 31 -2 56 -5 56 -3 0 -5 -8 -5 -18z m-6 -37 c7 -18
-2 -45 -15 -45 -13 0 -22 27 -15 45 3 8 10 15 15 15 5 0 11 -7 15 -15z"/>
<path d="M3610 1965 c0 -59 17 -76 22 -22 4 42 21 41 30 -3 l6 -35 -1 40 c-2
36 -5 40 -25 37 -19 -2 -22 2 -17 18 4 11 2 20 -4 20 -7 0 -11 -23 -11 -55z"/>
<path d="M4063 2006 c-4 -7 -15 -16 -23 -19 -11 -4 -11 -6 4 -6 15 -1 17 -7
14 -36 -2 -19 0 -35 4 -35 4 0 8 15 8 34 0 24 5 36 18 39 16 4 16 5 0 6 -10 0
-18 5 -18 10 0 5 8 12 18 14 15 4 15 5 0 6 -9 0 -21 -5 -25 -13z"/>
<path d="M4145 2010 c-3 -5 -1 -10 4 -10 6 0 11 5 11 10 0 6 -2 10 -4 10 -3 0
-8 -4 -11 -10z"/>
<path d="M4212 2013 c12 -3 18 -17 20 -51 2 -33 7 -47 18 -48 9 0 10 1 3 3 -8
3 -13 23 -13 54 0 45 -2 49 -22 48 -17 -1 -18 -3 -6 -6z"/>
<path d="M4840 2002 c0 -13 -7 -18 -22 -18 -20 1 -23 -4 -23 -34 0 -31 3 -35
28 -38 27 -3 27 -2 27 52 0 31 -2 56 -5 56 -3 0 -5 -8 -5 -18z m-5 -52 c0 -27
-22 -39 -31 -16 -8 22 3 49 19 43 6 -2 12 -14 12 -27z"/>
<path d="M2004 1998 c-5 -8 -2 -9 9 -5 14 5 17 0 17 -32 0 -22 -6 -42 -12 -44
-7 -3 3 -5 22 -5 19 0 28 2 20 4 -11 3 -14 16 -12 49 4 40 2 45 -16 45 -12 0
-24 -5 -28 -12z"/>
<path d="M2090 2000 c0 -5 6 -7 13 -4 9 3 12 -7 12 -36 0 -27 -4 -41 -15 -44
-8 -2 1 -4 20 -4 19 0 29 2 23 5 -8 3 -13 23 -13 49 0 37 -3 44 -20 44 -11 0
-20 -4 -20 -10z"/>
<path d="M2537 1955 c-15 -30 -23 -55 -19 -55 4 0 20 25 35 55 15 30 23 55 19
55 -4 0 -20 -25 -35 -55z"/>
<path d="M2680 1976 c0 -49 9 -66 35 -66 13 0 26 7 29 16 10 25 7 84 -4 84 -5
0 -10 -20 -10 -45 0 -33 -4 -45 -15 -45 -11 0 -15 12 -15 45 0 25 -4 45 -10
45 -5 0 -10 -15 -10 -34z"/>
<path d="M3800 2003 c0 -6 -8 -14 -17 -16 -17 -4 -17 -5 0 -6 13 -1 17 -10 17
-36 0 -30 3 -35 23 -34 16 1 18 2 5 6 -12 3 -18 14 -18 34 0 21 5 29 18 30 13
0 14 2 2 6 -8 3 -18 11 -22 17 -6 8 -8 8 -8 -1z"/>
<path d="M4305 2001 c3 -5 -3 -12 -12 -14 -17 -4 -17 -5 0 -6 13 -1 17 -6 12
-20 -8 -28 5 -51 29 -50 16 1 17 2 4 6 -12 3 -18 14 -18 33 0 19 6 30 18 33
16 4 16 5 0 6 -10 0 -18 6 -18 11 0 6 -5 10 -11 10 -5 0 -8 -4 -4 -9z"/>
<path d="M4980 2003 c0 -6 -8 -14 -17 -16 -17 -4 -17 -5 0 -6 13 -1 17 -10 17
-36 0 -30 3 -35 23 -34 16 1 18 2 5 6 -12 3 -18 14 -18 34 0 21 5 29 18 30 13
0 14 2 2 6 -8 3 -18 11 -22 17 -6 8 -8 8 -8 -1z"/>
<path d="M2774 1978 c-4 -6 2 -19 14 -29 27 -22 28 -33 2 -26 -11 3 -20 1 -20
-5 0 -14 53 -5 58 9 2 7 -8 18 -22 24 -29 14 -24 33 6 23 14 -4 18 -2 14 5 -9
14 -43 14 -52 -1z"/>
<path d="M2868 1983 c6 -2 12 -16 12 -29 0 -13 5 -24 10 -24 6 0 10 14 10 30
0 25 -4 30 -22 29 -13 0 -17 -3 -10 -6z"/>
<path d="M2941 1945 l2 -40 6 34 c8 48 31 53 31 7 0 -20 5 -36 10 -36 12 0 13
49 2 67 -4 7 -18 11 -30 10 -19 -1 -22 -7 -21 -42z"/>
<path d="M3024 1976 c-12 -31 0 -61 24 -60 12 0 21 -4 19 -10 -2 -6 -12 -10
-21 -10 -9 1 -16 -3 -16 -8 0 -5 10 -8 23 -6 19 3 22 10 25 53 3 48 2 51 -23
53 -15 1 -28 -4 -31 -12z m41 -26 c0 -27 -22 -39 -31 -16 -8 22 3 49 19 43 6
-2 12 -14 12 -27z"/>
<path d="M3280 1975 c-20 -24 -4 -65 25 -65 18 0 26 7 31 25 7 27 -9 55 -31
55 -7 0 -18 -7 -25 -15z m40 -31 c0 -15 -6 -24 -15 -24 -15 0 -21 40 -9 53 12
11 24 -3 24 -29z"/>
<path d="M3450 1982 c0 -6 9 -8 20 -5 11 3 20 1 20 -5 0 -6 -10 -12 -22 -14
-15 -2 -23 -10 -23 -23 0 -15 8 -21 31 -23 31 -3 31 -3 25 35 -5 29 -11 39
-29 41 -12 2 -22 -1 -22 -6z m40 -41 c0 -14 -18 -23 -30 -16 -6 4 -8 11 -5 16
8 12 35 12 35 0z"/>
<path d="M3537 1983 c-13 -13 -7 -32 13 -38 11 -3 20 -11 20 -17 0 -6 -9 -8
-20 -5 -11 3 -20 1 -20 -4 0 -5 11 -9 25 -9 31 0 35 35 5 45 -11 4 -18 11 -14
16 3 6 12 8 20 5 8 -3 14 -1 14 4 0 11 -33 14 -43 3z"/>
<path d="M3870 1975 c-20 -24 -4 -65 25 -65 18 0 26 7 31 25 7 27 -9 55 -31
55 -7 0 -18 -7 -25 -15z m40 -31 c0 -15 -6 -24 -15 -24 -15 0 -21 40 -9 53 12
11 24 -3 24 -29z"/>
<path d="M4133 1983 c11 -3 17 -14 17 -33 0 -19 -6 -30 -17 -33 -10 -3 0 -5
22 -5 22 0 32 2 23 5 -13 3 -18 15 -18 39 0 29 -3 34 -22 33 -17 -1 -19 -2 -5
-6z"/>
<path d="M4374 1976 c-12 -32 0 -61 29 -64 15 -2 27 1 27 6 0 5 -10 8 -21 8
-12 -1 -24 5 -26 12 -3 8 6 12 27 12 28 0 30 2 20 20 -12 23 -48 27 -56 6z
m41 -6 c3 -5 -3 -10 -15 -10 -12 0 -18 5 -15 10 3 6 10 10 15 10 5 0 12 -4 15
-10z"/>
<path d="M4472 1945 c1 -37 2 -37 5 -7 4 29 12 37 36 33 4 0 7 3 7 9 0 5 -11
9 -25 8 -22 -2 -25 -6 -23 -43z"/>
<path d="M4630 1982 c0 -6 9 -8 20 -5 11 3 20 1 20 -5 0 -6 -10 -12 -22 -14
-15 -2 -23 -10 -23 -23 0 -15 8 -21 31 -23 31 -3 31 -3 25 35 -5 29 -11 39
-29 41 -12 2 -22 -1 -22 -6z m40 -41 c0 -14 -18 -23 -30 -16 -6 4 -8 11 -5 16
8 12 35 12 35 0z"/>
<path d="M4711 1945 l2 -40 6 34 c8 48 31 53 31 7 0 -20 5 -36 10 -36 12 0 13
49 2 67 -4 7 -18 11 -30 10 -19 -1 -22 -7 -21 -42z"/>
<path d="M5062 1945 c1 -37 2 -37 5 -7 4 29 12 37 36 33 4 0 7 3 7 9 0 5 -11
9 -25 8 -22 -2 -25 -6 -23 -43z"/>
<path d="M2873 1913 c9 -2 25 -2 35 0 9 3 1 5 -18 5 -19 0 -27 -2 -17 -5z"/>
<path d="M4731 1788 c-12 -37 -2 -89 18 -96 10 -3 11 0 1 18 -12 22 -10 58 5
93 4 10 3 17 -3 17 -6 0 -15 -15 -21 -32z"/>
<path d="M3442 1758 c3 -51 4 -53 33 -53 29 0 30 2 33 53 2 31 -1 52 -7 52 -6
0 -11 -22 -11 -50 0 -38 -4 -50 -15 -50 -11 0 -15 12 -15 50 0 28 -5 50 -11
50 -6 0 -9 -21 -7 -52z"/>
<path d="M4370 1755 c0 -59 17 -76 22 -22 2 17 8 32 13 32 6 0 11 -15 13 -32
2 -18 7 -33 11 -33 4 0 5 16 3 36 -3 25 -10 38 -23 41 -11 3 -19 12 -19 19 0
8 -4 14 -10 14 -5 0 -10 -25 -10 -55z"/>
<path d="M2004 1788 c-5 -8 -2 -9 9 -5 14 5 17 0 17 -32 0 -22 -6 -42 -12 -44
-7 -3 3 -5 22 -5 19 0 28 2 20 4 -11 3 -14 16 -12 49 4 40 2 45 -16 45 -12 0
-24 -5 -28 -12z"/>
<path d="M2103 1793 c34 -5 34 -15 1 -59 l-26 -34 38 1 c32 2 34 3 10 6 l-28
5 27 28 c35 37 28 61 -17 59 -30 -2 -31 -2 -5 -6z"/>
<path d="M2785 1791 c3 -5 -3 -12 -12 -14 -17 -4 -17 -5 0 -6 13 -1 17 -10 17
-36 0 -30 3 -35 23 -34 16 1 18 2 5 6 -12 3 -18 14 -18 33 0 19 6 30 18 33 16
4 16 5 0 6 -10 0 -18 6 -18 11 0 6 -5 10 -11 10 -5 0 -8 -4 -4 -9z"/>
<path d="M3112 1785 c-7 -8 -8 -15 -3 -15 5 0 11 -15 13 -32 2 -27 8 -33 28
-35 14 -1 18 0 8 3 -12 4 -18 15 -18 34 0 19 6 30 18 33 16 4 16 5 0 6 -10 0
-18 6 -18 11 0 14 -13 12 -28 -5z"/>
<path d="M2442 1768 c-25 -25 -6 -68 30 -68 10 0 18 4 18 9 0 5 -8 8 -17 7
-13 -1 -18 6 -18 24 0 20 4 25 23 23 13 -2 21 1 17 7 -8 14 -38 13 -53 -2z"/>
<path d="M2520 1760 c-14 -26 3 -60 31 -60 24 0 33 21 25 55 -8 31 -41 34 -56
5z m44 -33 c-3 -9 -10 -17 -15 -17 -14 0 -22 27 -15 47 6 15 8 15 22 2 8 -9
12 -23 8 -32z"/>
<path d="M2600 1739 c0 -22 4 -39 9 -39 4 0 6 10 4 23 -2 12 1 28 6 36 14 22
33 2 29 -30 -3 -16 -1 -29 4 -29 5 0 8 17 6 38 -3 33 -6 37 -30 38 -26 1 -28
-2 -28 -37z"/>
<path d="M2697 1773 c-13 -13 -7 -32 13 -38 11 -3 20 -11 20 -17 0 -6 -9 -8
-20 -5 -11 3 -20 1 -20 -4 0 -5 11 -9 25 -9 31 0 35 35 5 45 -11 4 -18 11 -14
16 3 6 12 8 20 5 8 -3 14 -1 14 4 0 11 -33 14 -43 3z"/>
<path d="M2940 1771 c0 -6 6 -8 14 -5 8 3 17 1 21 -5 3 -7 -2 -11 -13 -11 -20
0 -36 -25 -26 -41 3 -5 19 -9 35 -9 29 0 30 2 27 38 -3 32 -7 37 -30 40 -16 2
-28 -1 -28 -7z m40 -40 c0 -12 -20 -25 -27 -18 -7 7 6 27 18 27 5 0 9 -4 9 -9z"/>
<path d="M3032 1768 c-27 -27 -6 -68 35 -68 13 0 23 4 23 10 0 5 -10 9 -22 7
-17 -1 -24 4 -26 21 -3 21 6 27 37 23 7 -2 10 2 6 8 -8 15 -38 14 -53 -1z"/>
<path d="M3200 1769 c0 -5 5 -7 10 -4 6 4 10 -6 10 -24 0 -20 -6 -31 -17 -34
-10 -3 0 -5 22 -5 22 0 32 2 23 5 -13 3 -18 15 -18 39 0 24 -5 34 -15 34 -8 0
-15 -5 -15 -11z"/>
<path d="M3274 1764 c3 -9 9 -27 12 -40 3 -13 12 -24 19 -24 7 0 16 11 19 24
3 13 9 31 12 40 3 9 2 16 -3 16 -6 0 -14 -15 -20 -32 l-10 -33 -7 33 c-4 17
-12 32 -18 32 -6 0 -7 -7 -4 -16z"/>
<path d="M3360 1760 c-15 -28 4 -60 35 -60 14 0 25 4 25 8 0 5 -10 8 -21 8
-12 -1 -24 5 -26 12 -3 8 6 12 27 12 28 0 30 2 20 20 -6 11 -19 20 -30 20 -11
0 -24 -9 -30 -20z m45 0 c3 -6 -4 -10 -17 -10 -18 0 -20 2 -8 10 19 12 18 12
25 0z"/>
<path d="M3534 1765 c-7 -18 3 -35 22 -35 8 0 14 -5 14 -11 0 -6 -9 -9 -20 -6
-11 3 -20 1 -20 -5 0 -5 12 -8 28 -6 33 4 36 28 4 44 -15 7 -20 14 -13 18 6 4
16 4 21 1 6 -3 10 -1 10 4 0 16 -40 13 -46 -4z"/>
<path d="M3614 1766 c-3 -8 -4 -25 -2 -38 2 -18 10 -24 36 -26 19 -2 32 1 32
8 0 7 -7 10 -15 6 -18 -6 -45 2 -45 15 0 5 14 9 30 9 32 0 37 9 18 28 -16 16
-47 15 -54 -2z m41 -6 c3 -6 -4 -10 -17 -10 -18 0 -20 2 -8 10 19 12 18 12 25
0z"/>
<path d="M3710 1738 c0 -21 5 -38 11 -38 5 0 7 5 4 10 -11 18 6 50 26 50 10 0
19 5 19 10 0 6 -13 9 -30 8 -28 -2 -30 -5 -30 -40z"/>
<path d="M3787 1773 c-13 -13 -7 -32 13 -38 11 -3 20 -11 20 -17 0 -6 -9 -8
-20 -5 -11 3 -20 1 -20 -5 0 -5 12 -8 27 -6 34 4 43 33 14 43 -12 3 -21 11
-21 16 0 6 9 7 20 4 11 -4 20 -2 20 4 0 12 -43 15 -53 4z"/>
<path d="M4294 1766 c-12 -32 0 -61 29 -64 15 -2 27 1 27 7 0 6 -6 8 -13 5 -8
-3 -20 2 -27 11 -15 19 3 47 26 38 8 -3 14 0 14 6 0 16 -50 13 -56 -3z"/>
<path d="M4454 1768 c-5 -8 -2 -9 10 -5 10 4 23 4 29 0 7 -4 2 -9 -13 -13 -39
-9 -34 -44 8 -48 28 -3 32 0 32 22 0 13 -3 31 -6 40 -7 19 -49 21 -60 4z m44
-40 c-6 -18 -28 -21 -28 -4 0 9 7 16 16 16 9 0 14 -5 12 -12z"/>
<path d="M4550 1769 c0 -5 5 -7 10 -4 6 4 10 -6 10 -24 0 -20 -6 -31 -17 -34
-10 -3 0 -5 22 -5 22 0 32 2 23 5 -13 3 -18 15 -18 39 0 24 -5 34 -15 34 -8 0
-15 -5 -15 -11z"/>
<path d="M4620 1738 c0 -46 17 -51 22 -5 2 17 8 32 13 32 6 0 11 -15 13 -32 3
-34 22 -47 22 -15 0 44 -12 61 -41 60 -27 -1 -29 -4 -29 -40z"/>
<path d="M4792 1743 c3 -34 6 -38 33 -41 30 -3 31 -3 26 40 l-5 43 -5 -34 c-8
-48 -31 -53 -31 -7 0 20 -5 36 -11 36 -6 0 -9 -16 -7 -37z"/>
<path d="M4884 1765 c-7 -18 3 -35 22 -35 8 0 14 -5 14 -11 0 -6 -9 -9 -20 -6
-11 3 -20 1 -20 -5 0 -5 12 -8 28 -6 33 4 36 28 4 44 -15 7 -20 14 -13 18 6 4
16 4 21 1 6 -3 10 -1 10 4 0 16 -40 13 -46 -4z"/>
<path d="M4964 1766 c-3 -8 -4 -25 -2 -38 2 -18 10 -24 36 -26 19 -2 32 1 32
8 0 7 -7 10 -15 6 -18 -6 -45 2 -45 15 0 5 14 9 30 9 32 0 37 9 18 28 -16 16
-47 15 -54 -2z m41 -6 c3 -6 -4 -10 -17 -10 -18 0 -20 2 -8 10 19 12 18 12 25
0z"/>
<path d="M5055 1739 c0 -22 3 -39 8 -39 4 0 7 11 7 24 0 25 22 51 33 39 4 -3
7 -1 7 5 0 6 -12 10 -27 10 -26 -1 -28 -4 -28 -39z"/>
<path d="M3940 1760 c0 -5 18 -10 40 -10 22 0 40 5 40 10 0 6 -18 10 -40 10
-22 0 -40 -4 -40 -10z"/>
<path d="M3940 1730 c0 -5 18 -10 40 -10 22 0 40 5 40 10 0 6 -18 10 -40 10
-22 0 -40 -4 -40 -10z"/>
<path d="M4210 1715 c0 -8 7 -15 15 -15 8 0 15 7 15 15 0 8 -7 15 -15 15 -8 0
-15 -7 -15 -15z"/>
<path d="M4100 1680 c0 -5 20 -10 45 -10 25 0 45 5 45 10 0 6 -20 10 -45 10
-25 0 -45 -4 -45 -10z"/>
<path d="M2425 1005 c0 -352 1 -495 2 -317 2 178 2 466 0 640 -1 174 -2 29 -2
-323z"/>
<path d="M3221 1592 c-18 -35 -12 -112 10 -112 4 0 3 14 -2 30 -8 21 -8 39 0
62 13 36 8 49 -8 20z"/>
<path d="M3964 1597 c15 -47 16 -65 7 -90 -6 -15 -7 -27 -2 -27 25 0 28 87 5
116 -14 18 -15 18 -10 1z"/>
<path d="M2710 1586 c0 -8 -8 -17 -17 -19 -16 -4 -16 -5 -1 -6 13 -1 16 -8 11
-36 -4 -23 -2 -35 6 -35 6 0 11 16 11 35 0 26 4 35 18 36 14 0 14 2 -3 9 -17
7 -17 9 -2 9 24 1 22 21 -3 21 -11 0 -20 -6 -20 -14z"/>
<path d="M2867 1592 c6 -4 13 -27 15 -52 2 -36 7 -45 23 -48 18 -2 18 -2 3 8
-13 8 -18 24 -18 55 0 36 -3 45 -17 45 -12 0 -14 -3 -6 -8z"/>
<path d="M3302 1575 c0 -16 2 -22 5 -12 2 9 2 23 0 30 -3 6 -5 -1 -5 -18z"/>
<path d="M3640 1590 c0 -5 5 -10 10 -10 6 0 10 5 10 10 0 6 -4 10 -10 10 -5 0
-10 -4 -10 -10z"/>
<path d="M3892 1575 c0 -16 2 -22 5 -12 2 9 2 23 0 30 -3 6 -5 -1 -5 -18z"/>
<path d="M2004 1578 c-5 -8 -2 -9 9 -5 14 5 17 0 17 -32 0 -22 -6 -42 -12 -44
-7 -3 3 -5 22 -5 19 0 28 2 20 4 -11 3 -14 16 -12 49 4 40 2 45 -16 45 -12 0
-24 -5 -28 -12z"/>
<path d="M2103 1583 c31 -5 35 -17 10 -32 -17 -10 -17 -10 0 -11 11 0 17 -8
17 -21 0 -17 -5 -20 -25 -17 -14 3 -25 1 -25 -3 0 -5 13 -9 29 -9 31 0 49 26
32 43 -7 7 -7 15 0 23 16 20 1 34 -34 33 -30 -2 -31 -2 -4 -6z"/>
<path d="M2942 1575 c-7 -8 -8 -15 -3 -15 5 0 11 -15 13 -32 2 -27 8 -33 28
-35 14 -1 18 0 8 3 -12 4 -18 15 -18 34 0 19 6 30 18 33 16 4 16 5 0 6 -10 0
-18 6 -18 11 0 14 -13 12 -28 -5z"/>
<path d="M3545 1580 c3 -5 -2 -10 -12 -10 -12 0 -14 -3 -6 -8 6 -4 13 -21 15
-37 2 -24 8 -30 28 -32 14 -1 18 0 8 3 -12 4 -18 15 -18 34 0 19 6 30 18 33
16 4 16 5 0 6 -10 0 -18 6 -18 11 0 6 -5 10 -11 10 -5 0 -7 -4 -4 -10z"/>
<path d="M2780 1559 c0 -5 5 -7 10 -4 6 4 10 -6 10 -24 0 -20 -6 -31 -17 -34
-10 -3 0 -5 22 -5 22 0 32 2 23 5 -13 3 -18 15 -18 39 0 24 -5 34 -15 34 -8 0
-15 -5 -15 -11z"/>
<path d="M3024 1556 c-3 -8 -4 -25 -2 -38 2 -18 10 -24 36 -26 19 -2 32 1 32
8 0 7 -7 10 -15 6 -18 -6 -45 2 -45 15 0 5 14 9 30 9 32 0 37 9 18 28 -16 16
-47 15 -54 -2z m41 -6 c3 -6 -4 -10 -17 -10 -18 0 -20 2 -8 10 19 12 18 12 25
0z"/>
<path d="M3120 1528 c0 -21 5 -38 11 -38 5 0 7 5 4 10 -11 18 6 50 26 50 10 0
19 5 19 10 0 6 -13 9 -30 8 -28 -2 -30 -5 -30 -40z"/>
<path d="M3360 1561 c0 -6 7 -8 15 -5 8 3 20 2 27 -2 9 -6 5 -10 -12 -14 -16
-4 -26 -14 -28 -28 -3 -19 1 -22 28 -22 30 0 31 1 28 38 -3 32 -7 37 -30 40
-16 2 -28 -1 -28 -7z m44 -46 c-6 -16 -34 -21 -34 -7 0 13 11 22 26 22 8 0 11
-6 8 -15z"/>
<path d="M3454 1556 c-12 -32 0 -61 29 -64 15 -2 27 1 27 6 0 5 -10 8 -22 8
-17 -1 -24 5 -26 22 -3 21 6 27 37 23 7 -2 10 2 6 8 -9 16 -45 13 -51 -3z"/>
<path d="M3620 1559 c0 -5 5 -7 10 -4 6 4 10 -6 10 -24 0 -20 -6 -31 -17 -34
-10 -3 0 -5 22 -5 22 0 32 2 22 5 -15 4 -18 12 -15 39 3 28 1 34 -14 34 -10 0
-18 -5 -18 -11z"/>
<path d="M3690 1566 c0 -14 32 -76 39 -76 11 0 35 69 28 77 -4 3 -12 -10 -20
-28 l-14 -34 -7 33 c-4 17 -12 32 -17 32 -5 0 -9 -2 -9 -4z"/>
<path d="M3784 1556 c-11 -30 1 -61 25 -64 13 -2 28 1 34 7 7 7 2 10 -18 8
-15 -1 -30 4 -32 11 -3 8 6 12 27 12 28 0 30 2 20 20 -12 23 -48 27 -56 6z
m41 -6 c3 -6 -4 -10 -17 -10 -18 0 -20 2 -8 10 19 12 18 12 25 0z"/>
<path d="M2610 1505 c0 -8 7 -15 15 -15 8 0 15 7 15 15 0 8 -7 15 -15 15 -8 0
-15 -7 -15 -15z"/>
<path d="M2962 1375 c-15 -34 -15 -67 1 -88 10 -15 12 -7 12 48 0 36 0 65 -1
65 0 0 -6 -11 -12 -25z"/>
<path d="M3720 1366 c-10 -32 -6 -81 9 -90 3 -2 6 25 6 60 0 35 0 64 -2 64 -1
0 -6 -15 -13 -34z"/>
<path d="M3823 1393 c-7 -3 -13 -16 -13 -29 0 -15 -6 -24 -15 -24 -8 0 -15 -4
-15 -10 0 -5 7 -10 15 -10 9 0 15 -9 15 -25 0 -17 5 -25 18 -25 13 0 14 2 3 9
-18 12 -18 90 0 102 16 9 10 18 -8 12z"/>
<path d="M2004 1368 c-5 -8 -2 -9 9 -5 14 5 17 0 17 -32 0 -22 -6 -42 -12 -44
-7 -3 3 -5 22 -5 19 0 28 2 20 4 -11 3 -14 16 -12 49 4 40 2 45 -16 45 -12 0
-24 -5 -28 -12z"/>
<path d="M2100 1348 c-26 -44 -25 -51 6 -44 21 6 25 4 21 -8 -4 -9 -2 -16 2
-16 14 0 18 22 13 63 -5 46 -16 47 -42 5z m30 -3 c0 -15 -6 -25 -15 -25 -12 0
-13 4 -3 25 6 14 13 25 15 25 1 0 3 -11 3 -25z"/>
<path d="M2682 1318 l1 -43 4 38 c2 20 8 37 14 37 5 0 10 -17 10 -37 l2 -38 7
40 c6 40 15 35 23 -15 3 -15 5 -8 6 18 1 42 1 42 -34 42 -35 0 -35 0 -33 -42z"/>
<path d="M2770 1350 c0 -7 8 -9 19 -5 11 3 22 1 26 -5 3 -5 -2 -10 -12 -10
-11 0 -24 -5 -30 -11 -18 -18 -3 -39 29 -39 28 0 29 2 26 38 -3 32 -7 37 -30
40 -16 2 -28 -2 -28 -8z m37 -47 c-9 -9 -19 -14 -23 -11 -10 10 6 28 24 28 15
0 15 -1 -1 -17z"/>
<path d="M2850 1305 c0 -30 5 -55 10 -55 6 0 10 7 10 15 0 8 9 15 20 15 25 0
34 21 26 55 -5 20 -13 25 -36 25 -30 0 -30 -1 -30 -55z m50 15 c0 -10 -5 -22
-10 -25 -13 -8 -24 20 -16 41 8 20 26 9 26 -16z"/>
<path d="M3022 1323 c3 -34 6 -38 33 -41 30 -3 31 -3 26 40 l-5 43 -5 -34 c-8
-48 -31 -53 -31 -7 0 20 -5 36 -11 36 -6 0 -9 -16 -7 -37z"/>
<path d="M3114 1345 c-7 -18 3 -35 22 -35 8 0 14 -5 14 -11 0 -6 -9 -9 -20 -6
-11 3 -20 1 -20 -5 0 -5 12 -8 28 -6 33 4 36 28 4 44 -15 7 -20 14 -13 18 6 4
16 4 21 1 6 -3 10 -1 10 4 0 16 -40 13 -46 -4z"/>
<path d="M3194 1346 c-3 -8 -4 -25 -2 -38 2 -18 10 -24 36 -26 19 -2 32 1 32
8 0 7 -7 10 -15 6 -18 -6 -45 2 -45 15 0 5 14 9 30 9 32 0 37 9 18 28 -16 16
-47 15 -54 -2z m41 -6 c3 -6 -4 -10 -17 -10 -18 0 -20 2 -8 10 19 12 18 12 25
0z"/>
<path d="M3285 1319 c0 -22 3 -39 8 -39 4 0 7 11 7 24 0 25 22 51 33 39 4 -3
7 -1 7 5 0 6 -12 10 -27 10 -26 -1 -28 -4 -28 -39z"/>
<path d="M3520 1352 c0 -5 12 -13 28 -19 l27 -10 -27 -8 c-16 -4 -28 -11 -28
-16 0 -5 2 -9 4 -9 9 0 76 31 76 35 0 4 -67 35 -76 35 -2 0 -4 -4 -4 -8z"/>
<path d="M3440 1340 c0 -5 16 -10 35 -10 19 0 35 5 35 10 0 6 -16 10 -35 10
-19 0 -35 -4 -35 -10z"/>
<path d="M3440 1310 c0 -5 16 -10 35 -10 19 0 35 5 35 10 0 6 -16 10 -35 10
-19 0 -35 -4 -35 -10z"/>
<path d="M2610 1295 c0 -8 7 -15 15 -15 8 0 15 7 15 15 0 8 -7 15 -15 15 -8 0
-15 -7 -15 -15z"/>
<path d="M2594 1010 c0 -118 2 -167 3 -108 2 60 2 156 0 215 -1 60 -3 11 -3
-107z"/>
<path d="M4312 1165 c-15 -34 -15 -67 1 -88 10 -15 12 -7 12 48 0 36 0 65 -1
65 0 0 -6 -11 -12 -25z"/>
<path d="M3870 1123 c0 -29 4 -53 9 -53 4 0 6 11 3 25 -4 22 -1 25 22 25 16 0
25 4 21 10 -4 6 -15 8 -26 5 -13 -4 -19 -2 -19 9 0 10 9 16 25 16 14 0 25 3
25 8 0 4 -13 7 -30 7 -30 0 -30 -1 -30 -52z"/>
<path d="M2004 1158 c-5 -8 -2 -9 9 -5 14 5 17 0 17 -32 0 -22 -6 -42 -12 -44
-7 -3 3 -5 22 -5 19 0 28 2 20 4 -11 3 -14 16 -12 49 4 40 2 45 -16 45 -12 0
-24 -5 -28 -12z"/>
<path d="M2090 1144 c0 -14 4 -23 8 -20 15 9 35 -12 28 -29 -4 -11 -13 -15
-26 -12 -11 3 -20 1 -20 -4 0 -5 13 -9 29 -9 21 0 32 6 36 20 7 23 -10 50 -31
50 -23 0 -16 18 9 23 19 4 18 4 -5 6 -24 1 -28 -3 -28 -25z"/>
<path d="M4213 1155 c-15 -17 -17 -29 -3 -20 6 4 10 -8 10 -29 0 -31 3 -36 23
-36 20 1 20 2 5 11 -23 13 -25 64 -3 55 8 -3 15 -1 15 4 0 6 -7 10 -16 10 -8
0 -12 5 -9 10 9 15 -8 11 -22 -5z"/>
<path d="M2770 1109 c0 -22 5 -39 11 -39 6 0 9 9 6 20 -3 10 1 27 8 37 12 17
14 16 20 -9 4 -15 4 -32 0 -37 -3 -6 -1 -11 5 -11 7 0 10 15 8 38 -3 33 -6 37
-30 38 -26 1 -28 -2 -28 -37z"/>
<path d="M2854 1138 c-5 -8 -2 -9 10 -5 10 4 23 4 29 0 7 -4 2 -9 -13 -13 -39
-9 -34 -44 8 -48 28 -3 32 0 32 22 0 13 -3 31 -6 40 -7 19 -49 21 -60 4z m44
-40 c-6 -18 -28 -21 -28 -4 0 9 7 16 16 16 9 0 14 -5 12 -12z"/>
<path d="M2930 1110 c0 -23 5 -40 11 -40 7 0 9 12 7 30 -3 17 -1 33 4 36 4 3
8 -11 8 -30 0 -20 4 -36 8 -36 5 0 7 13 4 29 -2 16 1 32 7 35 7 5 11 -5 11
-28 0 -20 3 -36 8 -36 4 0 6 18 4 40 -4 38 -6 40 -38 40 -33 0 -34 -1 -34 -40z"/>
<path d="M3024 1136 c-3 -8 -4 -25 -2 -38 2 -18 10 -24 36 -26 19 -2 32 1 32
8 0 7 -7 10 -15 6 -18 -6 -45 2 -45 15 0 5 14 9 30 9 32 0 37 9 18 28 -16 16
-47 15 -54 -2z m41 -6 c3 -6 -4 -10 -17 -10 -18 0 -20 2 -8 10 19 12 18 12 25
0z"/>
<path d="M3120 1135 c0 -8 7 -15 15 -15 8 0 15 7 15 15 0 8 -7 15 -15 15 -8 0
-15 -7 -15 -15z"/>
<path d="M3440 1126 c0 -42 11 -56 41 -56 27 0 29 3 29 40 0 48 -17 54 -22 8
-2 -18 -7 -33 -13 -33 -5 0 -11 15 -13 33 -4 37 -22 44 -22 8z"/>
<path d="M3528 1096 c-1 -31 0 -56 5 -56 4 0 7 6 7 14 0 8 10 16 23 18 18 2
22 9 22 38 0 30 -3 35 -27 38 -25 3 -26 1 -30 -52z m45 -2 c-3 -8 -9 -14 -14
-14 -14 0 -22 27 -14 48 6 16 7 16 20 -1 8 -11 11 -25 8 -33z"/>
<path d="M3610 1095 c0 -30 5 -55 10 -55 6 0 10 7 10 15 0 8 9 15 20 15 13 0
22 9 26 25 8 31 -10 55 -42 55 -22 0 -24 -4 -24 -55z m50 15 c0 -10 -5 -22
-10 -25 -13 -8 -24 20 -16 41 8 20 26 9 26 -16z"/>
<path d="M3702 1138 c-15 -15 -15 -41 0 -56 14 -14 58 -16 58 -4 0 5 -10 8
-21 8 -12 -1 -24 5 -26 12 -3 7 5 12 22 12 20 0 26 4 23 18 -4 21 -39 27 -56
10z m43 -8 c3 -5 -3 -10 -15 -10 -12 0 -18 5 -15 10 3 6 10 10 15 10 5 0 12
-4 15 -10z"/>
<path d="M3790 1108 c0 -21 5 -38 10 -38 6 0 10 14 10 30 0 27 8 35 33 31 4 0
7 3 7 8 0 5 -13 9 -30 9 -28 -1 -30 -4 -30 -40z"/>
<path d="M3960 1139 c0 -5 5 -7 10 -4 6 4 10 -6 10 -24 0 -20 -6 -31 -17 -34
-10 -3 0 -5 22 -5 22 0 32 2 23 5 -13 3 -18 15 -18 39 0 24 -5 34 -15 34 -8 0
-15 -5 -15 -11z"/>
<path d="M4045 1109 c0 -22 3 -39 8 -39 4 0 7 11 7 24 0 25 22 51 33 39 4 -3
7 -1 7 5 0 6 -12 10 -27 10 -26 -1 -28 -4 -28 -39z"/>
<path d="M4124 1135 c-7 -18 3 -35 22 -35 8 0 14 -5 14 -11 0 -6 -9 -9 -20 -6
-11 3 -20 1 -20 -5 0 -5 12 -8 28 -6 33 4 36 28 4 44 -15 7 -20 14 -13 18 6 4
16 4 21 1 6 -3 10 -1 10 4 0 16 -40 13 -46 -4z"/>
<path d="M4372 1113 c3 -34 6 -38 33 -41 30 -3 31 -3 26 40 l-5 43 -5 -34 c-8
-48 -31 -53 -31 -7 0 20 -5 36 -11 36 -6 0 -9 -16 -7 -37z"/>
<path d="M4460 1129 c0 -12 8 -23 20 -26 11 -3 17 -9 14 -15 -3 -5 -14 -6 -25
-3 -11 4 -19 2 -19 -4 0 -6 14 -11 30 -11 24 0 30 4 30 21 0 12 -8 23 -20 26
-11 3 -17 10 -14 15 3 5 12 7 20 4 8 -3 14 -1 14 4 0 6 -11 10 -25 10 -19 0
-25 -5 -25 -21z"/>
<path d="M4540 1130 c-15 -28 4 -60 35 -60 14 0 25 4 25 8 0 5 -10 8 -21 8
-12 -1 -24 5 -26 12 -3 8 6 12 27 12 28 0 30 2 20 20 -6 11 -19 20 -30 20 -11
0 -24 -9 -30 -20z m45 0 c3 -6 -4 -10 -17 -10 -18 0 -20 2 -8 10 19 12 18 12
25 0z"/>
<path d="M4635 1109 c0 -22 3 -39 8 -39 4 0 7 11 7 24 0 25 22 51 33 39 4 -3
7 -1 7 5 0 6 -12 10 -27 10 -26 -1 -28 -4 -28 -39z"/>
<path d="M4790 1111 c0 -49 17 -55 22 -8 2 17 8 32 13 32 6 0 11 -15 13 -32 2
-18 7 -33 11 -33 4 0 5 17 2 38 -5 31 -11 37 -34 40 -25 3 -27 1 -27 -37z"/>
<path d="M4880 1141 c0 -6 6 -8 14 -5 8 3 17 1 21 -5 3 -7 -2 -11 -13 -11 -20
0 -36 -25 -26 -41 3 -5 19 -9 35 -9 29 0 30 2 27 38 -3 32 -7 37 -30 40 -16 2
-28 -1 -28 -7z m40 -40 c0 -12 -20 -25 -27 -18 -7 7 6 27 18 27 5 0 9 -4 9 -9z"/>
<path d="M4955 1110 c0 -22 3 -40 8 -40 4 0 7 16 7 36 0 23 4 33 11 28 6 -3 9
-19 7 -35 -3 -16 -1 -29 3 -29 4 0 10 17 12 38 l4 37 1 -37 c1 -21 7 -38 13
-38 6 0 9 16 7 38 -3 34 -5 37 -38 40 -35 3 -35 3 -35 -38z"/>
<path d="M5050 1136 c-6 -8 -10 -25 -8 -38 2 -18 10 -24 36 -26 18 -2 32 1 32
7 0 6 -10 10 -21 8 -12 -1 -24 4 -26 11 -3 8 5 12 22 12 21 0 26 4 21 16 -3 9
-6 18 -6 20 0 10 -39 2 -50 -10z m35 -6 c3 -5 -1 -10 -10 -10 -9 0 -13 5 -10
10 3 6 8 10 10 10 2 0 7 -4 10 -10z"/>
<path d="M3120 1085 c0 -8 7 -15 15 -15 8 0 15 7 15 15 0 8 -7 15 -15 15 -8 0
-15 -7 -15 -15z"/>
<path d="M3370 1085 c0 -8 7 -15 15 -15 8 0 15 7 15 15 0 8 -7 15 -15 15 -8 0
-15 -7 -15 -15z"/>
<path d="M4720 1085 c0 -8 7 -15 15 -15 8 0 15 7 15 15 0 8 -7 15 -15 15 -8 0
-15 -7 -15 -15z"/>
<path d="M3260 1050 c0 -5 20 -10 45 -10 25 0 45 5 45 10 0 6 -20 10 -45 10
-25 0 -45 -4 -45 -10z"/>
<path d="M2112 962 c-41 -14 -31 -106 11 -100 17 2 22 10 22 33 0 25 -4 30
-23 29 -29 -1 -23 19 9 26 17 4 20 8 9 11 -8 4 -21 4 -28 1z m21 -78 c-3 -8
-9 -14 -13 -14 -14 0 -22 20 -16 37 5 12 9 13 21 3 7 -6 11 -18 8 -26z"/>
<path d="M2004 948 c-5 -8 -2 -9 9 -5 14 5 17 0 17 -32 0 -22 -6 -42 -12 -44
-7 -3 3 -5 22 -5 19 0 28 2 20 4 -11 3 -14 16 -12 49 4 40 2 45 -16 45 -12 0
-24 -5 -28 -12z"/>
<path d="M2770 930 c0 -7 8 -9 19 -5 11 3 22 1 26 -5 3 -5 -2 -10 -12 -10 -11
0 -24 -5 -30 -11 -18 -18 -3 -39 29 -39 28 0 29 2 26 38 -3 32 -7 37 -30 40
-16 2 -28 -2 -28 -8z m37 -47 c-9 -9 -19 -14 -23 -11 -10 10 6 28 24 28 15 0
15 -1 -1 -17z"/>
<path d="M2855 920 c-9 -27 3 -60 21 -60 11 0 12 4 3 19 -14 21 -5 56 11 46 6
-3 9 -23 7 -43 -2 -28 -7 -37 -20 -36 -9 1 -17 -2 -17 -7 0 -5 9 -9 20 -9 25
0 40 29 40 74 0 33 -2 36 -29 36 -21 0 -32 -6 -36 -20z"/>
<path d="M2942 928 c-15 -15 -15 -41 0 -56 14 -14 58 -16 58 -4 0 5 -10 8 -21
8 -12 -1 -24 5 -26 12 -3 7 5 12 22 12 20 0 26 4 23 18 -4 21 -39 27 -56 10z
m43 -8 c3 -5 -3 -10 -15 -10 -12 0 -18 5 -15 10 3 6 10 10 15 10 5 0 12 -4 15
-10z"/>
<path d="M3040 925 c0 -8 5 -15 10 -15 6 0 10 7 10 15 0 8 -4 15 -10 15 -5 0
-10 -7 -10 -15z"/>
<path d="M3192 903 c3 -34 6 -38 33 -41 30 -3 31 -3 26 40 l-5 43 -5 -34 c-8
-48 -31 -53 -31 -7 0 20 -5 36 -11 36 -6 0 -9 -16 -7 -37z"/>
<path d="M3280 919 c0 -12 8 -23 20 -26 11 -3 17 -9 14 -15 -3 -5 -14 -6 -25
-3 -11 4 -19 2 -19 -4 0 -6 14 -11 30 -11 24 0 30 4 30 21 0 12 -8 23 -20 26
-11 3 -17 10 -14 15 3 5 12 7 20 4 8 -3 14 -1 14 4 0 6 -11 10 -25 10 -19 0
-25 -5 -25 -21z"/>
<path d="M3360 920 c-15 -28 4 -60 35 -60 14 0 25 4 25 8 0 5 -10 8 -21 8 -12
-1 -24 5 -26 12 -3 8 6 12 27 12 28 0 30 2 20 20 -6 11 -19 20 -30 20 -11 0
-24 -9 -30 -20z m45 0 c3 -6 -4 -10 -17 -10 -18 0 -20 2 -8 10 19 12 18 12 25
0z"/>
<path d="M3455 899 c0 -22 3 -39 8 -39 4 0 7 11 7 24 0 25 22 51 33 39 4 -3 7
-1 7 5 0 6 -12 10 -27 10 -26 -1 -28 -4 -28 -39z"/>
<path d="M3610 930 c0 -7 7 -9 16 -6 9 3 21 3 27 -1 7 -4 2 -9 -13 -13 -16 -4
-26 -14 -28 -28 -3 -19 1 -22 31 -22 34 0 34 0 28 38 -5 31 -11 37 -34 40 -16
2 -27 -2 -27 -8z m50 -39 c0 -14 -18 -23 -30 -16 -6 4 -8 11 -5 16 8 12 35 12
35 0z"/>
<path d="M3697 920 c-8 -32 3 -60 25 -60 11 0 16 -5 13 -11 -4 -6 -13 -8 -21
-5 -8 3 -14 1 -14 -4 0 -17 47 -11 54 6 3 9 6 33 6 55 0 36 -2 39 -29 39 -20
0 -30 -6 -34 -20z m43 -20 c0 -10 -5 -22 -10 -25 -13 -8 -24 20 -16 41 8 20
26 9 26 -16z"/>
<path d="M3784 926 c-3 -8 -4 -25 -2 -38 2 -18 10 -24 36 -26 19 -2 32 1 32 8
0 7 -7 10 -15 6 -18 -6 -45 2 -45 15 0 5 14 9 30 9 32 0 37 9 18 28 -16 16
-47 15 -54 -2z m41 -6 c3 -6 -4 -10 -17 -10 -18 0 -20 2 -8 10 19 12 18 12 25
0z"/>
<path d="M3040 875 c0 -8 5 -15 10 -15 6 0 10 7 10 15 0 8 -4 15 -10 15 -5 0
-10 -7 -10 -15z"/>
<path d="M3540 875 c0 -8 7 -15 15 -15 8 0 15 7 15 15 0 8 -7 15 -15 15 -8 0
-15 -7 -15 -15z"/>
<path d="M2600 761 c0 -5 5 -11 11 -13 17 -6 15 -88 -2 -99 -11 -7 -11 -9 3
-9 9 0 20 10 24 23 4 12 12 25 18 30 7 5 8 9 1 15 -6 4 -16 19 -22 35 -12 26
-33 37 -33 18z"/>
<path d="M2705 707 c0 -67 8 -76 19 -22 3 17 0 43 -7 59 -12 26 -12 24 -12
-37z"/>
<path d="M2784 757 c15 -47 16 -65 7 -90 -6 -15 -7 -27 -2 -27 25 0 28 87 5
116 -14 18 -15 18 -10 1z"/>
<path d="M2004 738 c-5 -8 -2 -9 9 -5 14 5 17 0 17 -32 0 -22 -6 -42 -12 -44
-7 -3 3 -5 22 -5 19 0 28 2 20 4 -11 3 -14 16 -12 49 4 40 2 45 -16 45 -12 0
-24 -5 -28 -12z"/>
<path d="M2103 743 c32 -5 31 -1 12 -46 -17 -42 -18 -47 -7 -47 5 0 15 23 24
50 l16 50 -36 -1 c-31 -2 -32 -3 -9 -6z"/>
<path d="M3132 535 c-15 -34 -15 -67 1 -88 10 -15 12 -7 12 48 0 36 0 65 -1
65 0 0 -6 -11 -12 -25z"/>
<path d="M3205 543 c15 -34 17 -71 6 -92 -7 -12 -8 -21 -2 -21 5 0 14 13 19
30 12 32 -2 100 -20 100 -6 0 -7 -7 -3 -17z"/>
<path d="M2102 541 c-7 -4 -11 -18 -11 -32 1 -13 1 -28 -1 -34 -7 -26 1 -36
28 -33 19 2 28 9 30 26 2 13 -2 22 -9 22 -10 0 -10 3 -1 12 7 7 12 15 12 20 0
13 -35 27 -48 19z m28 -27 c0 -9 -5 -14 -12 -12 -18 6 -21 28 -4 28 9 0 16 -7
16 -16z m4 -39 c3 -9 -1 -18 -10 -22 -19 -7 -28 2 -21 22 8 19 23 19 31 0z"/>
<path d="M2867 542 c6 -4 13 -27 15 -52 2 -36 7 -45 23 -48 18 -2 18 -2 3 8
-13 8 -18 24 -18 55 0 36 -3 45 -17 45 -12 0 -14 -3 -6 -8z"/>
<path d="M2004 528 c-5 -8 -2 -9 9 -5 14 5 17 0 17 -32 0 -22 -6 -42 -12 -44
-7 -3 3 -5 22 -5 19 0 28 2 20 4 -11 3 -14 16 -12 49 4 40 2 45 -16 45 -12 0
-24 -5 -28 -12z"/>
<path d="M2684 504 c3 -9 9 -27 12 -40 8 -31 30 -31 38 0 3 13 9 31 12 40 3 9
2 16 -3 16 -6 0 -14 -15 -20 -32 l-10 -33 -7 33 c-4 17 -12 32 -18 32 -6 0 -7
-7 -4 -16z"/>
<path d="M2770 510 c0 -7 8 -9 19 -5 11 3 22 1 26 -5 3 -5 -2 -10 -12 -10 -11
0 -24 -5 -30 -11 -18 -18 -3 -39 29 -39 28 0 29 2 26 38 -3 32 -7 37 -30 40
-16 2 -28 -2 -28 -8z m37 -47 c-9 -9 -19 -14 -23 -11 -10 10 6 28 24 28 15 0
15 -1 -1 -17z"/>
<path d="M2941 483 c-1 -41 0 -43 29 -43 28 0 30 2 30 40 0 48 -17 54 -22 8
-4 -43 -21 -42 -29 2 l-6 35 -2 -42z"/>
<path d="M3024 506 c-3 -8 -4 -25 -2 -38 2 -18 10 -24 36 -26 19 -2 32 1 32 8
0 7 -7 10 -15 6 -18 -6 -45 2 -45 15 0 5 14 9 30 9 32 0 37 9 18 28 -16 16
-47 15 -54 -2z m41 -6 c3 -6 -4 -10 -17 -10 -18 0 -20 2 -8 10 19 12 18 12 25
0z"/>
<path d="M3290 505 c0 -8 7 -15 15 -15 8 0 15 7 15 15 0 8 -7 15 -15 15 -8 0
-15 -7 -15 -15z"/>
<path d="M2610 455 c0 -8 7 -15 15 -15 8 0 15 7 15 15 0 8 -7 15 -15 15 -8 0
-15 -7 -15 -15z"/>
<path d="M3288 445 c-6 -28 16 -36 26 -9 9 24 7 34 -8 34 -7 0 -16 -11 -18
-25z"/>
<path d="M1525 230 c-3 -5 1 -10 10 -10 9 0 13 5 10 10 -3 6 -8 10 -10 10 -2
0 -7 -4 -10 -10z"/>
<path d="M2067 233 c-11 -10 -8 -103 3 -103 6 0 10 25 10 55 0 56 -1 60 -13
48z"/>
<path d="M2095 230 c-3 -5 1 -10 10 -10 9 0 13 5 10 10 -3 6 -8 10 -10 10 -2
0 -7 -4 -10 -10z"/>
<path d="M3190 220 c-13 -11 -18 -20 -12 -20 7 0 13 -17 14 -37 l1 -38 4 35
c3 19 10 38 16 42 8 5 7 8 -3 8 -13 0 -13 1 0 10 8 5 12 11 9 15 -3 3 -16 -4
-29 -15z"/>
<path d="M3560 230 c0 -5 5 -10 10 -10 6 0 10 5 10 10 0 6 -4 10 -10 10 -5 0
-10 -4 -10 -10z"/>
<path d="M1391 178 c1 -29 4 -43 6 -31 3 15 13 23 31 25 21 2 27 8 27 28 0 21
-5 26 -32 28 l-33 3 1 -53z m49 22 c0 -13 -7 -20 -20 -20 -13 0 -20 7 -20 20
0 13 7 20 20 20 13 0 20 -7 20 -20z"/>
<path d="M1901 178 c1 -29 4 -43 6 -31 3 15 13 23 31 25 21 2 27 8 27 28 0 21
-5 26 -32 28 l-33 3 1 -53z m49 22 c0 -13 -7 -20 -20 -20 -13 0 -20 7 -20 20
0 13 7 20 20 20 13 0 20 -7 20 -20z"/>
<path d="M2673 223 c13 -3 17 -15 17 -49 0 -24 5 -44 10 -44 6 0 10 20 10 44
0 34 4 46 18 49 9 3 -3 5 -28 5 -25 0 -37 -2 -27 -5z"/>
<path d="M3277 224 c-15 -16 -5 -36 23 -45 17 -6 30 -15 30 -20 0 -17 -30 -22
-47 -8 -14 12 -16 12 -11 -1 3 -9 17 -15 34 -15 22 0 30 5 32 21 2 17 -5 24
-29 33 -26 9 -30 14 -21 23 10 10 17 10 33 -1 18 -10 20 -10 17 1 -5 14 -50
23 -61 12z"/>
<path d="M1475 169 c0 -22 3 -39 8 -39 4 0 7 13 7 30 0 17 7 33 17 38 13 8 12
10 -8 10 -21 0 -24 -5 -24 -39z"/>
<path d="M1533 170 c0 -25 2 -35 4 -22 2 12 2 32 0 45 -2 12 -4 2 -4 -23z"/>
<path d="M1565 174 c8 -20 15 -38 15 -40 0 -2 4 -4 8 -4 10 0 34 72 27 79 -3
2 -10 -11 -17 -30 l-12 -34 -8 33 c-5 17 -13 32 -18 32 -6 0 -4 -16 5 -36z"/>
<path d="M1635 200 c-5 -9 -1 -10 13 -6 11 4 23 3 26 -3 3 -5 -5 -12 -19 -15
-16 -4 -25 -13 -25 -26 0 -16 7 -20 31 -20 29 0 30 2 27 38 -2 29 -8 38 -25
40 -11 2 -24 -2 -28 -8z m37 -52 c-6 -6 -16 -7 -22 -3 -9 6 -9 9 1 16 17 10
34 0 21 -13z"/>
<path d="M1710 191 c-15 -29 4 -63 32 -59 12 2 24 10 26 18 5 13 3 13 -11 2
-19 -16 -37 -8 -37 18 0 26 18 34 37 18 14 -11 16 -11 11 2 -7 24 -45 24 -58
1z"/>
<path d="M1787 188 c4 -13 7 -38 7 -55 0 -25 2 -30 12 -22 15 13 46 99 35 99
-5 0 -13 -15 -18 -32 l-11 -33 -7 33 c-4 17 -12 32 -17 32 -5 0 -6 -9 -1 -22z"/>
<path d="M1984 185 c-9 -36 2 -55 30 -55 30 0 46 41 26 65 -20 24 -49 18 -56
-10z m44 -21 c-4 -24 -24 -29 -32 -8 -8 20 13 49 27 35 5 -5 7 -17 5 -27z"/>
<path d="M2103 170 c0 -25 2 -35 4 -22 2 12 2 32 0 45 -2 12 -4 2 -4 -23z"/>
<path d="M2134 196 c-12 -31 0 -61 25 -61 13 0 27 7 29 15 4 13 3 13 -11 2
-19 -16 -37 -8 -37 18 0 26 18 34 37 18 14 -11 16 -11 11 2 -6 20 -47 25 -54
6z"/>
<path d="M2216 168 c10 -28 11 -44 4 -46 -5 -2 -10 -8 -10 -13 0 -21 28 5 40
39 7 20 15 43 17 50 3 6 1 12 -4 12 -6 0 -14 -15 -20 -32 l-10 -33 -7 33 c-4
17 -12 32 -16 32 -5 0 -2 -19 6 -42z"/>
<path d="M2744 196 c-16 -43 20 -86 49 -57 9 9 5 11 -12 9 -13 -2 -26 2 -28 8
-2 7 6 10 22 6 24 -4 26 -2 23 19 -4 28 -45 40 -54 15z m41 -6 c3 -5 -3 -10
-15 -10 -12 0 -18 5 -15 10 3 6 10 10 15 10 5 0 12 -4 15 -10z"/>
<path d="M2821 165 c2 -33 3 -35 6 -10 2 17 11 35 20 42 13 10 13 12 -6 10
-18 -1 -21 -7 -20 -42z"/>
<path d="M2870 168 c0 -21 3 -38 8 -38 4 0 7 14 7 32 0 17 6 33 13 35 8 3 12
-7 12 -31 0 -45 18 -48 22 -3 4 42 21 41 30 -3 l6 -35 -1 40 -2 40 -47 1 -48
1 0 -39z"/>
<path d="M2997 203 c-13 -13 -7 -32 13 -38 11 -3 20 -11 20 -16 0 -6 -10 -7
-22 -4 -18 6 -20 4 -12 -5 16 -16 48 -9 52 12 2 12 -5 19 -22 24 -14 3 -23 10
-20 15 3 6 15 7 26 3 14 -4 18 -2 14 5 -8 12 -39 15 -49 4z"/>
<path d="M3104 196 c-11 -29 1 -61 23 -64 29 -4 48 30 33 58 -12 23 -48 27
-56 6z m41 -26 c0 -13 -6 -25 -12 -27 -16 -6 -27 21 -19 43 9 23 31 11 31 -16z"/>
<path d="M3361 188 c-5 -13 -5 -30 1 -40 9 -19 43 -24 53 -8 4 6 -3 9 -16 7
-12 -1 -24 3 -26 9 -2 7 6 10 22 6 24 -4 26 -2 23 19 -4 34 -45 39 -57 7z m44
2 c3 -5 -3 -10 -15 -10 -12 0 -18 5 -15 10 3 6 10 10 15 10 5 0 12 -4 15 -10z"/>
<path d="M3435 168 c0 -46 13 -51 17 -6 4 45 32 49 44 7 12 -40 30 -48 38 -15
3 13 9 31 12 40 3 9 2 16 -3 16 -6 0 -14 -15 -20 -32 l-10 -33 -7 32 c-7 28
-11 32 -39 31 -30 -1 -32 -3 -32 -40z"/>
<path d="M3560 170 c0 -22 5 -40 10 -40 6 0 10 18 10 40 0 22 -4 40 -10 40 -5
0 -10 -18 -10 -40z"/>
<path d="M3602 198 c-7 -7 -12 -20 -12 -29 0 -36 57 -53 68 -19 4 13 3 13 -11
2 -19 -16 -37 -8 -37 17 0 25 11 33 27 19 15 -12 28 -5 18 11 -8 15 -38 14
-53 -1z"/>
<path d="M3674 185 c-3 -14 -4 -32 0 -40 6 -16 51 -21 61 -6 3 6 -5 9 -17 8
-13 -1 -23 3 -23 8 0 6 4 9 9 7 5 -2 15 -1 23 2 11 4 11 10 3 26 -15 29 -48
26 -56 -5z m41 5 c3 -6 -4 -10 -17 -10 -18 0 -20 2 -8 10 19 12 18 12 25 0z"/>
<path d="M2457 183 c-12 -11 -8 -23 8 -23 8 0 15 7 15 15 0 16 -12 20 -23 8z"/>
</g>
</svg>
